<svg width="188" height="282" viewBox="0 0 188 282" fill="none" xmlns="http://www.w3.org/2000/svg">
<path d="M65.7888 270.999C52.4555 214.499 30.4888 97.699 49.2888 82.499C72.7888 63.499 73.7888 126.999 69.7888 149.999C65.9796 171.902 71.6926 269.528 84.3368 280.952L86.2888 281.999C85.621 281.88 84.9702 281.524 84.3368 280.952L65.7888 270.999Z" fill="#5FCEAE"/>
<path d="M94.7079 242.128C80.8594 170.876 58.044 23.5812 77.5704 4.41259C101.978 -19.5481 103.017 60.5311 98.8625 89.5362C94.9061 117.158 100.84 240.273 113.973 254.679L116 256C115.306 255.85 114.63 255.401 113.973 254.679L94.7079 242.128Z" fill="#5FCEAE"/>
<path d="M41.7228 256.027C22.8836 185.929 -10.2631 40.6098 7.86276 20.1118C30.5201 -5.51061 37.2039 74.2959 35.1053 103.522C33.1068 131.353 47.7085 253.744 61.8246 267.188L63.9402 268.362C63.2376 268.261 62.5317 267.861 61.8246 267.188L41.7228 256.027Z" fill="#5FCEAE"/>
<path d="M146.218 256.027C165.057 185.929 198.204 40.6098 180.078 20.1118C157.42 -5.51061 150.737 74.2959 152.835 103.522C154.834 131.353 140.232 253.744 126.116 267.188L124 268.362C124.703 268.261 125.409 267.861 126.116 267.188L146.218 256.027Z" fill="#5FCEAE"/>
<path d="M118.5 256.999C131.834 200.499 153.8 83.699 135 68.499C111.5 49.499 110.5 112.999 114.5 135.999C118.309 157.902 112.597 255.528 99.9523 266.952L98.0002 267.999C98.6681 267.88 99.3189 267.524 99.9523 266.952L118.5 256.999Z" fill="#5FCEAE"/>
</svg>
