<svg width="326" height="196" viewBox="0 0 326 196" fill="none" xmlns="http://www.w3.org/2000/svg">
<mask id="mask0" mask-type="alpha" maskUnits="userSpaceOnUse" x="0" y="0" width="326" height="196">
<path fill-rule="evenodd" clip-rule="evenodd" d="M240.569 36.586C235.567 21.0795 224.794 0.499465 207.835 0.0149284C187.867 -0.555576 179.469 15.3389 181.601 28.2606C168.728 28.1447 158.128 29.3008 149.213 31.2466C138.239 6.18446 113.996 -4.4654 92.2727 22.6884C79.0338 39.237 84.76 51.8854 93.4737 59.5993C86.2063 62.538 78.0048 62.9811 65.9422 58.5273C18.4009 40.9735 2.30998 40.9736 0.115762 84.1265C-2.07845 127.279 27.1778 142.639 65.9422 113.383C74.3877 107.009 82.3819 105.217 90.6055 106.375C84.9504 115.284 86.2268 127.69 109.827 141.176C147.245 162.558 149.937 155.966 155.894 141.374C156.085 140.904 156.281 140.426 156.481 139.94C166.995 145.096 178.721 149.773 192.052 153.027C183.047 165.654 174.265 184.855 190.281 193.106C209.505 203.009 223.625 176.722 230.794 157.851C307.27 160.498 329.4 133.199 325.591 119.234C322.448 97.2313 300.826 54.4804 240.569 36.586Z" fill="#F36001"/>
</mask>
<g mask="url(#mask0)">
<rect x="-45.3472" y="-26.3306" width="497.355" height="264.769" fill="#16140F"/>
<circle cx="317.43" cy="109.711" r="90.6942" fill="#16140F"/>
<circle cx="12.8449" cy="86.2885" r="80.3706" transform="rotate(174.941 12.8449 86.2885)" fill="#16140F"/>
<circle cx="321.818" cy="111.174" r="90.6942" fill="#FDFFF8"/>
<circle cx="5.57931" cy="78.3671" r="80.3706" transform="rotate(174.941 5.57931 78.3671)" fill="#FDFFF8"/>
<circle cx="349.612" cy="119.951" r="90.6942" fill="#16140F"/>
<circle cx="354" cy="119.951" r="90.6942" fill="#16140F"/>
<circle cx="-13.7896" cy="80.082" r="80.3706" transform="rotate(174.941 -13.7896 80.082)" fill="#16140F"/>
<circle cx="-18.178" cy="82.7558" r="80.3706" transform="rotate(174.941 -18.178 82.7558)" fill="#16140F"/>
<path d="M192.2 205.134C205.807 209.166 223.26 190.759 231.183 164.02C226.388 174.036 212.943 192.688 197.526 187.162C182.108 181.636 180.691 159.698 181.91 149.419C173.986 176.158 178.594 201.102 192.2 205.134Z" fill="#16140F"/>
<path d="M115.22 150.298C138.168 164.773 163.59 165.697 172.002 152.362C165.861 155.819 147.039 158.453 120.874 141.335C94.7083 124.216 88.6556 106.607 88.9 99.9421C80.4882 113.278 92.2719 135.823 115.22 150.298Z" fill="#16140F"/>
<path d="M5.18599 91.3621C8.05018 118.342 23.0822 138.865 38.761 137.201C32.2422 134.525 18.5085 121.387 15.7243 90.2434C12.9401 59.0996 23.0072 43.4354 28.3888 39.4962C12.71 41.1606 2.32179 64.3818 5.18599 91.3621Z" fill="#16140F"/>
<path d="M110.41 12.0732C90.6447 24.6336 79.6172 44.1154 85.7793 55.587C85.7959 49.5257 91.5737 33.8792 114.552 19.7837C137.53 5.6881 152.662 7.45575 157.355 10.1015C151.193 -1.37004 130.175 -0.487293 110.41 12.0732Z" fill="#16140F"/>
<path d="M193.394 1.61601C181.719 9.03563 176.689 18.5161 182.851 29.9877C181.869 24.5609 183.88 17.4983 197.536 9.32648C211.192 1.15464 221.997 5.67234 225.692 8.95267C219.53 -2.51888 205.07 -5.80362 193.394 1.61601Z" fill="#16140F"/>
<path d="M170.908 99.5424C174.582 154.558 173.751 152.767 188.703 152.863C188.703 136.041 184.699 162.998 180.957 99.6075C177.215 36.2167 187.344 7.4867 192.36 0.731175C177.408 0.634353 167.233 44.5264 170.908 99.5424Z" fill="#16140F"/>
<path d="M167.416 103.409C171.09 158.425 170.368 156.634 183.04 156.716C182.869 139.892 179.75 166.855 175.933 103.464C172.116 40.0727 178.858 19.926 183.04 13.1651C141.893 2.19401 163.741 48.3929 167.416 103.409Z" fill="#FDFFF8"/>
<path d="M168.063 102.254C169.01 157.385 169.688 155.53 154.797 156.879C153.388 140.115 159.635 166.642 158.055 103.161C156.474 39.6795 143.974 11.8989 138.41 5.58725C153.3 4.23842 167.117 47.1239 168.063 102.254Z" fill="#16140F"/>
<path d="M171.546 99.1992C172.492 154.33 173.17 152.475 158.28 153.823C156.871 137.06 163.118 163.587 161.537 100.106C159.956 36.6243 147.456 8.84376 141.893 2.53208C156.783 1.18324 170.599 44.0687 171.546 99.1992Z" fill="#FDFFF8"/>
<path d="M-0.665087 92.8245C2.19911 119.805 17.2311 140.327 32.9099 138.663C26.3911 135.987 12.6574 122.85 9.87322 91.7058C7.08902 60.5621 17.1561 44.8978 22.5377 40.9586C6.85898 42.623 -3.52928 65.8442 -0.665087 92.8245Z" fill="#FDFFF8"/>
<path d="M107.466 8.11468C87.7006 20.6751 76.6731 40.1569 82.8352 51.6285C82.8518 45.5672 88.6296 29.9207 111.608 15.8252C134.585 1.72961 149.717 3.49725 154.411 6.14302C148.249 -5.32853 127.231 -4.44579 107.466 8.11468Z" fill="#FDFFF8"/>
</g>
<circle cx="288.905" cy="110.442" r="12.4339" fill="#FFFAFA"/>
<circle cx="291.831" cy="110.442" r="9.50827" fill="#414141"/>
</svg>
