<svg width="264" height="275" viewBox="0 0 264 275" fill="none" xmlns="http://www.w3.org/2000/svg">
<circle cx="132" cy="143" r="132" fill="#0A3C6D"/>
<path d="M47.2601 102.08L32.7375 95.7558L35.5068 89.3966C36.2734 87.6363 37.1834 86.4882 38.237 85.9523C39.2906 85.4164 40.4482 85.4231 41.7098 85.9725C42.4872 86.3111 43.0745 86.846 43.4715 87.5774C43.8685 88.3087 43.9497 89.1642 43.715 90.144L43.737 90.1536C44.3245 89.2053 45.0444 88.5939 45.8969 88.3194C46.7494 88.045 47.6011 88.093 48.4519 88.4635C49.6988 89.0065 50.4763 89.8861 50.7843 91.1022C51.0988 92.3037 50.8791 93.7699 50.1253 95.5009L47.2601 102.08ZM40.1166 95.4615L41.4294 92.447C42.1257 90.848 41.8504 89.7771 40.6035 89.2341C39.3566 88.6911 38.385 89.219 37.6887 90.818L36.3759 93.8326L40.1166 95.4615ZM46.2558 98.135L47.7219 94.7684C48.0732 93.9616 48.1738 93.2899 48.0235 92.7533C47.865 92.1956 47.4777 91.7826 46.8616 91.5143C46.2601 91.2524 45.7086 91.2565 45.207 91.5267C44.6971 91.7759 44.2665 92.3038 43.9152 93.1107L42.4491 96.4773L46.2558 98.135Z" fill="white"/>
<path d="M56.2126 85.1288C55.7517 85.7827 55.2191 86.2882 54.615 86.6453C54.0109 87.0025 53.3431 87.1582 52.6119 87.1125C51.8898 87.0537 51.1104 86.7293 50.2734 86.1393L43.761 81.5483L45.6555 78.8609L51.5206 82.9956C52.2791 83.5303 52.9193 83.7468 53.4413 83.645C53.9503 83.5339 54.4122 83.1842 54.8271 82.5957C55.2235 82.0334 55.3711 81.3936 55.2699 80.6762C55.1649 79.9366 54.6547 79.2441 53.7393 78.5988L48.4627 74.879L50.3572 72.1916L60.165 79.1058L58.4779 81.4989L56.7022 80.3939C57.1125 81.1726 57.2718 81.9603 57.18 82.7569C57.0882 83.5536 56.7658 84.3442 56.2126 85.1288Z" fill="white"/>
<path d="M61.7461 77.3973L52.9637 69.22L54.9099 67.1298L56.7784 68.5744C56.3884 67.7959 56.2366 67.0315 56.323 66.2812C56.4086 65.5083 56.7731 64.7765 57.4164 64.0856C57.798 63.6757 58.1568 63.4195 58.4927 63.317L60.251 65.4788C60.1069 65.5632 59.9413 65.6823 59.7543 65.8361C59.5666 65.9674 59.3473 66.1677 59.0965 66.437C58.7585 66.8 58.5247 67.2272 58.3951 67.7186C58.2646 68.1874 58.2769 68.6908 58.432 69.2287C58.5753 69.7556 58.9104 70.2644 59.4374 70.7551L63.9867 74.9909L61.7461 77.3973Z" fill="white"/>
<path d="M67.9024 70.7635L60.2765 61.4982L62.5558 59.6222L64.0821 61.2879C63.8375 60.4116 63.8548 59.5892 64.134 58.8206C64.4256 58.0419 64.9296 57.3576 65.6461 56.7679C66.6097 55.9748 67.6404 55.6031 68.7381 55.6528C69.8257 55.6902 70.8322 56.2709 71.7574 57.3951L76.76 63.4732L74.2213 65.5627L69.8136 60.2073C69.1628 59.4167 68.5548 59.0053 67.9896 58.9732C67.4266 58.9185 66.9042 59.0895 66.4224 59.486C66.0765 59.7707 65.8079 60.1368 65.6167 60.5843C65.4277 61.0093 65.3807 61.4935 65.4757 62.0369C65.5831 62.5702 65.891 63.1457 66.3994 63.7634L70.4411 68.674L67.9024 70.7635Z" fill="white"/>
<path d="M73.0748 49.5724C71.9334 50.3119 71.0452 50.1914 70.4101 49.2112C69.7664 48.2175 70.0152 47.3509 71.1566 46.6115C72.298 45.872 73.1906 45.9992 73.8344 46.9929C74.4694 47.9731 74.2162 48.833 73.0748 49.5724ZM75.384 50.1354L81.9085 60.2067L79.1489 61.9944L72.6245 51.9231L75.384 50.1354Z" fill="white"/>
<path d="M84.121 58.6677L78.7201 47.9518L81.3562 46.6232L82.4787 48.5838C82.4329 47.6752 82.6307 46.8767 83.0721 46.1884C83.5278 45.4929 84.1701 44.9363 84.9988 44.5186C86.1132 43.9569 87.2004 43.821 88.2603 44.111C89.3131 44.3867 90.1671 45.1747 90.8224 46.4749L94.3654 53.5045L91.4292 54.9843L88.3075 48.7905C87.8466 47.8761 87.344 47.3411 86.7997 47.1854C86.2625 47.0082 85.7153 47.0601 85.1581 47.3409C84.758 47.5425 84.4155 47.8406 84.1305 48.2351C83.8527 48.608 83.7003 49.07 83.6734 49.6211C83.6609 50.165 83.8346 50.7941 84.1947 51.5085L87.0571 57.1879L84.121 58.6677Z" fill="white"/>
<path d="M102.69 48.0849C103.915 47.6604 104.951 47.5975 105.8 47.896C106.649 48.1946 107.238 48.82 107.568 49.7725C107.872 50.6493 107.877 51.4689 107.582 52.2314C107.288 52.994 106.739 53.6836 105.937 54.3004C105.15 54.9119 104.167 55.422 102.988 55.8308C101.037 56.5068 99.5146 56.7298 98.4189 56.5C97.3383 56.265 96.646 55.709 96.3421 54.8322C96.1639 54.3182 96.1654 53.8097 96.3467 53.3066C96.5482 52.8134 96.9856 52.3654 97.6589 51.9627C96.515 51.9358 95.7623 51.4009 95.4007 50.3578C95.2225 49.8438 95.2165 49.3378 95.3826 48.84C95.5638 48.3369 95.8925 47.8927 96.3686 47.5075C94.9437 47.2564 93.9876 46.4278 93.5003 45.0219C93.0863 43.8276 93.2225 42.7305 93.9089 41.7305C94.59 40.7155 95.7318 39.9302 97.3342 39.3747C98.2413 39.0603 99.0995 38.8983 99.909 38.8886C99.7424 38.0658 99.8292 37.2906 100.17 36.563C100.505 35.8202 101.126 35.2916 102.033 34.9772C102.063 34.9667 102.101 34.9536 102.147 34.9379C102.192 34.9222 102.237 34.9065 102.283 34.8908L103.416 36.9873C103.29 37.0141 103.151 37.0537 103 37.1061C102.425 37.3052 102.003 37.5784 101.734 37.9257C101.46 38.2579 101.348 38.6438 101.399 39.0834C102.602 39.4283 103.416 40.213 103.841 41.4375C104.249 42.6167 104.106 43.7164 103.409 44.7367C102.723 45.7367 101.586 46.5118 99.9989 47.062C99.3035 47.303 98.6476 47.4627 98.0312 47.5409C97.7149 47.7521 97.5127 47.9746 97.4244 48.2084C97.346 48.4219 97.3434 48.6344 97.4168 48.8461C97.6369 49.481 98.2307 49.6308 99.1982 49.2954L102.69 48.0849ZM98.0102 41.3249C97.4055 41.5345 96.9643 41.8737 96.6865 42.3426C96.4087 42.8114 96.372 43.3406 96.5764 43.9302C96.7808 44.5198 97.1398 44.9203 97.6533 45.1317C98.1617 45.3281 98.7182 45.3214 99.3229 45.1118C99.9125 44.9075 100.346 44.5709 100.624 44.102C100.896 43.6181 100.931 43.0813 100.726 42.4917C100.522 41.9021 100.165 41.5092 99.6571 41.3128C99.1488 41.1165 98.5998 41.1205 98.0102 41.3249ZM102.271 53.6913C103.435 53.2878 104.247 52.8455 104.707 52.3644C105.187 51.8932 105.359 51.461 105.223 51.0679C105.123 50.7807 104.929 50.5857 104.639 50.4829C104.355 50.3952 103.918 50.4535 103.328 50.6579L99.4959 51.9863C99.1331 52.1121 98.8622 52.3076 98.6832 52.5728C98.5246 52.848 98.4977 53.1367 98.6025 53.4391C98.7492 53.8624 99.1442 54.098 99.7873 54.146C100.446 54.1887 101.274 54.0372 102.271 53.6913Z" fill="white"/>
<path d="M127.61 40.8267C127.342 42.4289 126.664 43.6906 125.577 44.6118C124.488 45.5171 123.151 46.0765 121.565 46.29C120.011 46.4991 118.62 46.3555 117.39 45.859C116.177 45.3604 115.18 44.5502 114.399 43.4283C113.635 42.3042 113.139 40.9018 112.913 39.221C112.687 37.5401 112.802 36.0555 113.258 34.7671C113.714 33.4788 114.461 32.4337 115.5 31.6321C116.538 30.8304 117.818 30.3271 119.341 30.1222C120.942 29.9066 122.36 30.063 123.593 30.5911C124.84 31.1013 125.77 32.0095 126.381 33.3155L123.578 34.9763C123.18 34.0612 122.677 33.4428 122.069 33.1211C121.458 32.7835 120.717 32.6734 119.845 32.7908C118.545 32.9658 117.569 33.5734 116.918 34.6135C116.281 35.6357 116.079 37.0189 116.314 38.7631C116.547 40.4916 117.091 41.7745 117.946 42.6118C118.801 43.4492 119.919 43.7751 121.299 43.5894C122.155 43.4741 122.861 43.145 123.418 42.6019C123.99 42.0566 124.34 41.2992 124.468 40.3295L127.61 40.8267Z" fill="white"/>
<path d="M135.953 33.0567C137.153 33.0928 138.209 33.3726 139.122 33.8963C140.034 34.4199 140.733 35.1532 141.216 36.0962C141.716 37.0396 141.947 38.1671 141.907 39.4785C141.868 40.7899 141.57 41.9014 141.015 42.8132C140.475 43.7254 139.734 44.4154 138.791 44.8833C137.849 45.3512 136.778 45.5671 135.578 45.5311C134.363 45.4945 133.299 45.2144 132.386 44.6908C131.49 44.1676 130.791 43.4343 130.291 42.4909C129.808 41.5479 129.585 40.4207 129.625 39.1093C129.664 37.7979 129.954 36.6861 130.493 35.7739C131.049 34.8622 131.79 34.1721 132.717 33.7037C133.659 33.2358 134.738 33.0202 135.953 33.0567ZM135.88 35.5036C134.984 35.4767 134.271 35.7754 133.74 36.3997C133.225 37.0085 132.949 37.9446 132.911 39.2081C132.873 40.4715 133.093 41.4305 133.569 42.0851C134.062 42.7242 134.756 43.0573 135.652 43.0842C136.532 43.1106 137.229 42.8194 137.743 42.2106C138.274 41.5863 138.559 40.6424 138.597 39.379C138.635 38.1155 138.407 37.1643 137.914 36.5252C137.438 35.8706 136.759 35.53 135.88 35.5036Z" fill="white"/>
<path d="M152.175 39.5518C152.308 38.8768 152.215 38.3123 151.897 37.8582C151.594 37.4072 151.129 37.1198 150.501 36.996C149.92 36.8816 149.381 36.9302 148.883 37.1418C148.384 37.3535 147.965 37.7845 147.625 38.435L145.037 37.0444C145.508 36.0609 146.253 35.3434 147.271 34.8918C148.305 34.4433 149.584 34.3691 151.107 34.6692C152.645 34.9724 153.812 35.5857 154.609 36.5091C155.424 37.4199 155.69 38.5974 155.405 40.0416L154.463 44.8217C154.345 45.4182 154.569 45.7722 155.134 45.8836C155.401 45.9361 155.66 45.9464 155.911 45.9143L155.328 47.8787C154.88 48.0023 154.349 48.0038 153.737 47.8832C153.062 47.7502 152.501 47.4929 152.055 47.1113C151.624 46.7328 151.378 46.244 151.316 45.6449C150.828 46.1357 150.202 46.4607 149.436 46.6198C148.69 46.7662 147.948 46.7667 147.21 46.6213C146.017 46.3862 145.12 45.9322 144.519 45.2592C143.936 44.5737 143.747 43.7129 143.951 42.6768C144.125 41.7977 144.548 41.1391 145.221 40.7011C145.898 40.2473 146.782 40.022 147.874 40.0252L152.086 39.9992L152.175 39.5518ZM147.238 43.0064C147.16 43.3989 147.243 43.725 147.485 43.9847C147.743 44.2476 148.076 44.4192 148.484 44.4997C148.94 44.5894 149.377 44.6023 149.798 44.5383C150.218 44.4744 150.586 44.3023 150.902 44.0222C151.222 43.7263 151.437 43.2958 151.548 42.7307L151.692 42.0007L149.122 42.008C148.567 42.0127 148.129 42.0814 147.81 42.2141C147.509 42.3342 147.318 42.5983 147.238 43.0064Z" fill="white"/>
<path d="M165.328 33.4098L160.747 46.1723C160.557 46.6993 160.515 47.1007 160.62 47.3764C160.725 47.6521 160.989 47.8656 161.41 48.017C161.666 48.1089 161.883 48.1696 162.059 48.1989C162.235 48.2283 162.468 48.2437 162.756 48.2453L161.755 50.1809C161.445 50.2396 161.081 50.2363 160.663 50.171C160.254 50.1262 159.861 50.0363 159.484 49.9011C158.385 49.5064 157.674 48.9537 157.351 48.2428C157.049 47.5223 157.109 46.5747 157.53 45.4001L162.234 32.2988L165.328 33.4098Z" fill="white"/>
<path d="M111.548 146.952C104.953 153.546 102.306 141.207 101.806 134.213C94.3124 140.208 79.3251 197.16 132.53 195.661C175.094 194.462 173.745 154.196 167.75 134.213C165.003 140.457 159.358 148.451 158.758 130.466C158.159 112.481 139.524 95.9949 130.282 90C132.031 96.9941 133.13 111.582 123.538 113.98C111.548 116.977 119.791 138.709 111.548 146.952Z" fill="#F52300"/>
<path d="M116.341 160.239C111.325 164.727 109.311 156.328 108.931 151.567C103.23 155.648 91.829 194.413 132.303 193.393C164.682 192.577 163.656 165.169 159.096 151.567C157.006 155.818 152.711 161.259 152.255 149.017C151.799 136.775 137.624 125.554 130.593 121.473C131.923 126.234 132.759 136.163 125.462 137.796C116.341 139.836 122.612 154.628 116.341 160.239Z" fill="#FF9C44"/>
<path d="M122.041 170.372C118.825 173.084 117.534 168.01 117.29 165.134C113.636 167.599 106.327 191.02 132.272 190.403C153.028 189.91 152.371 173.351 149.447 165.134C148.107 167.702 145.354 170.989 145.062 163.593C144.77 156.197 135.683 149.417 131.176 146.952C132.029 149.828 132.565 155.827 127.887 156.813C122.041 158.046 126.06 166.983 122.041 170.372Z" fill="#FFD54C"/>
<path d="M96.5606 128.218C96.3108 124.721 97.31 116.977 103.305 113.98C104.304 116.977 104.354 124.021 96.5606 128.218Z" fill="#F52300"/>
</svg>
