<svg width="356" height="252" viewBox="0 0 356 252" fill="none" xmlns="http://www.w3.org/2000/svg">
<mask id="mask0" mask-type="alpha" maskUnits="userSpaceOnUse" x="-1" y="0" width="357" height="252">
<path fill-rule="evenodd" clip-rule="evenodd" d="M112.727 51.4372C120.452 37.0915 134.77 18.7998 151.537 21.3911C171.278 24.4422 176.662 41.5937 172.229 53.9166C184.91 56.1314 195.126 59.1859 203.541 62.7123C218.868 40.0488 244.638 33.9603 261.091 64.5958C271.117 83.2664 263.197 94.6702 253.232 100.681C259.848 104.886 267.834 106.805 280.503 104.607C330.436 95.943 346.261 98.8539 340.613 141.692C334.964 184.53 303.412 194.343 270.58 158.557C263.427 150.761 255.889 147.553 247.591 147.203C251.541 156.988 248.042 168.959 222.392 177.953C181.722 192.213 180.268 185.243 177.049 169.814C176.945 169.317 176.84 168.811 176.731 168.298C165.457 171.466 153.079 173.945 139.379 174.734C145.951 188.782 151.115 209.254 133.87 214.472C113.172 220.734 104.04 192.326 100.404 172.47C24.7103 161.238 7.88365 130.387 14.1565 117.341C21.2281 96.2699 50.2273 58.1359 112.727 51.4372Z" fill="#F36001"/>
</mask>
<g mask="url(#mask0)">
<rect width="497.356" height="264.769" transform="matrix(-0.983501 -0.180902 -0.180902 0.983501 405.308 41.2812)" fill="#F36001"/>
<circle r="90.6942" transform="matrix(-0.983501 -0.180902 -0.180902 0.983501 23.9059 109.451)" fill="#16140F"/>
<circle r="80.3706" transform="matrix(0.963719 0.266919 0.266919 -0.963719 327.702 141.515)" fill="#16140F"/>
<circle r="90.6942" transform="matrix(-0.983501 -0.180902 -0.180902 0.983501 19.3253 110.096)" fill="#FDFFF8"/>
<circle r="80.3706" transform="matrix(0.963719 0.266919 0.266919 -0.963719 336.281 135.039)" fill="#FDFFF8"/>
<circle r="90.6942" transform="matrix(-0.983501 -0.180902 -0.180902 0.983501 -9.59732 113.7)" fill="#16140F"/>
<circle r="90.6942" transform="matrix(-0.983501 -0.180902 -0.180902 0.983501 -13.9135 112.906)" fill="#F36001"/>
<circle r="80.3706" transform="matrix(0.963719 0.266919 0.266919 -0.963719 355.02 140.229)" fill="#16140F"/>
<circle r="80.3706" transform="matrix(0.963719 0.266919 0.266919 -0.963719 358.853 143.653)" fill="#F36001"/>
<path d="M129.807 225.954C115.696 227.458 101.86 206.197 98.9049 178.466C101.809 189.185 111.658 209.961 127.821 207.315C143.984 204.669 149.346 183.349 150.007 173.02C152.962 200.751 143.918 224.45 129.807 225.954Z" fill="#16140F"/>
<path d="M215.437 185.949C190.249 196.034 165.08 192.344 159.219 177.707C164.633 182.217 182.667 188.213 211.498 176.11C240.329 164.008 249.467 147.784 250.432 141.185C256.293 155.822 240.625 175.863 215.437 185.949Z" fill="#16140F"/>
<path d="M334.317 147.89C326.62 173.908 308.123 191.372 293.004 186.899C299.899 185.446 315.783 175.01 324.155 144.884C332.528 114.758 325.46 97.5306 320.88 92.6828C335.999 97.1561 342.015 121.873 334.317 147.89Z" fill="#16140F"/>
<path d="M245.173 50.8747C262.34 66.8035 269.661 87.9587 261.525 98.1263C262.606 92.162 259.754 75.7284 239.705 57.7087C219.656 39.689 204.454 38.69 199.359 40.443C207.494 30.2755 228.006 34.9459 245.173 50.8747Z" fill="#16140F"/>
<path d="M165.45 25.5781C175.59 34.9874 178.822 45.2214 170.686 55.3889C172.633 50.2293 171.934 42.9196 159.981 32.4121C148.028 21.9046 136.585 24.3932 132.357 26.951C140.493 16.7834 155.309 16.1688 165.45 25.5781Z" fill="#16140F"/>
<path d="M169.85 125.957C156.283 179.4 157.425 177.788 142.703 175.179C145.746 158.634 144.807 185.871 159.955 124.203C175.103 62.5346 170.338 32.4463 166.627 24.8949C181.349 27.5044 183.417 72.513 169.85 125.957Z" fill="#16140F"/>
<path d="M172.585 130.391C159.018 183.835 160.053 182.204 147.575 179.992C150.787 163.477 148.976 190.56 164.198 128.905C179.419 67.2499 176.433 46.2159 173.543 38.81C215.997 35.4636 186.151 76.9478 172.585 130.391Z" fill="#FDFFF8"/>
<path d="M172.157 129.139C161.253 183.188 160.922 181.241 175.323 185.261C179.741 169.03 168.798 193.989 181.837 131.841C194.875 69.6926 212.195 44.6317 218.808 39.4307C204.408 35.4103 183.061 75.0889 172.157 129.139Z" fill="#16140F"/>
<path d="M169.285 125.504C158.381 179.553 158.049 177.606 172.45 181.627C176.869 165.395 165.925 190.354 178.964 128.206C192.003 66.0578 209.322 40.997 215.936 35.7959C201.535 31.7756 180.189 71.4541 169.285 125.504Z" fill="#FDFFF8"/>
<path d="M339.807 150.388C332.11 176.405 313.613 193.869 298.494 189.396C305.389 187.944 321.273 177.507 329.645 147.381C338.018 117.255 330.95 100.028 326.37 95.1799C341.489 99.6532 347.505 124.371 339.807 150.388Z" fill="#FDFFF8"/>
<path d="M248.785 47.5138C265.952 63.4426 273.273 84.5979 265.137 94.7654C266.217 88.8011 263.365 72.3676 243.317 54.3478C223.268 36.3281 208.066 35.3292 202.971 37.0822C211.106 26.9146 231.618 31.585 248.785 47.5138Z" fill="#FDFFF8"/>
</g>
<circle r="12.4339" transform="matrix(-0.983501 -0.180902 -0.180902 0.983501 51.8276 115.331)" fill="#FFFAFA"/>
<circle r="9.50827" transform="matrix(-0.983501 -0.180902 -0.180902 0.983501 48.9503 114.801)" fill="#414141"/>
</svg>
