<svg width="356" height="252" viewBox="0 0 356 252" fill="none" xmlns="http://www.w3.org/2000/svg">
<mask id="mask0" mask-type="alpha" maskUnits="userSpaceOnUse" x="0" y="0" width="356" height="252">
<path fill-rule="evenodd" clip-rule="evenodd" d="M243.219 51.4372C235.493 37.0915 221.175 18.7998 204.409 21.3911C184.667 24.4422 179.283 41.5937 183.717 53.9166C171.035 56.1314 160.82 59.1859 152.404 62.7123C137.077 40.0488 111.307 33.9603 94.8548 64.5958C84.8279 83.2664 92.7478 94.6702 102.713 100.681C96.0973 104.886 88.1113 106.805 75.442 104.607C25.5095 95.943 9.68408 98.8539 15.3325 141.692C20.9809 184.53 52.533 194.343 85.3654 158.557C92.5185 150.761 100.057 147.553 108.354 147.203C104.404 156.988 107.904 168.959 133.554 177.953C174.223 192.213 175.677 185.243 178.896 169.814C179 169.317 179.105 168.811 179.214 168.298C190.488 171.466 202.866 173.945 216.566 174.734C209.994 188.782 204.83 209.254 222.075 214.472C242.773 220.734 251.905 192.326 255.542 172.47C331.235 161.238 348.062 130.387 341.789 117.341C334.717 96.2699 305.718 58.1359 243.219 51.4372Z" fill="#F36001"/>
</mask>
<g mask="url(#mask0)">
<rect x="-49.3623" y="41.2812" width="497.356" height="264.769" transform="rotate(-10.4223 -49.3623 41.2812)" fill="#F36001"/>
<circle cx="332.039" cy="109.451" r="90.6942" transform="rotate(-10.4223 332.039 109.451)" fill="#16140F"/>
<circle cx="28.2428" cy="141.515" r="80.3706" transform="rotate(164.519 28.2428 141.515)" fill="#16140F"/>
<circle cx="336.62" cy="110.096" r="90.6942" transform="rotate(-10.4223 336.62 110.096)" fill="#FDFFF8"/>
<circle cx="19.664" cy="135.039" r="80.3706" transform="rotate(164.519 19.664 135.039)" fill="#FDFFF8"/>
<circle cx="365.543" cy="113.7" r="90.6942" transform="rotate(-10.4223 365.543 113.7)" fill="#16140F"/>
<circle cx="369.859" cy="112.906" r="90.6942" transform="rotate(-10.4223 369.859 112.906)" fill="#F36001"/>
<circle cx="0.924944" cy="140.229" r="80.3706" transform="rotate(164.519 0.924944 140.229)" fill="#16140F"/>
<circle cx="-2.90733" cy="143.653" r="80.3706" transform="rotate(164.519 -2.90733 143.653)" fill="#F36001"/>
<path d="M226.138 225.954C240.25 227.458 254.085 206.197 257.04 178.466C254.136 189.185 244.288 209.961 228.125 207.315C211.962 204.669 206.599 183.349 205.938 173.02C202.983 200.751 212.027 224.45 226.138 225.954Z" fill="#16140F"/>
<path d="M140.508 185.949C165.696 196.034 190.866 192.344 196.726 177.707C191.313 182.217 173.278 188.213 144.447 176.11C115.617 164.008 106.478 147.784 105.513 141.185C99.6522 155.822 115.32 175.863 140.508 185.949Z" fill="#16140F"/>
<path d="M21.6279 147.89C29.3257 173.908 47.8223 191.372 62.9413 186.899C56.0459 185.446 40.1622 175.01 31.79 144.884C23.4178 114.758 30.4851 97.5306 35.0653 92.6828C19.9463 97.1561 13.9302 121.873 21.6279 147.89Z" fill="#16140F"/>
<path d="M110.772 50.8744C93.6055 66.8032 86.2842 87.9585 94.4198 98.126C93.3397 92.1617 96.1917 75.7282 116.241 57.7084C136.289 39.6887 151.492 38.6898 156.587 40.4428C148.451 30.2752 127.939 34.9456 110.772 50.8744Z" fill="#16140F"/>
<path d="M190.496 25.5781C180.355 34.9874 177.124 45.2214 185.259 55.3889C183.312 50.2293 184.011 42.9196 195.964 32.4121C207.917 21.9046 219.36 24.3932 223.588 26.951C215.452 16.7834 200.636 16.1688 190.496 25.5781Z" fill="#16140F"/>
<path d="M186.095 125.957C199.662 179.4 198.52 177.788 213.243 175.179C210.199 158.634 211.138 185.871 195.991 124.203C180.843 62.5346 185.608 32.4463 189.318 24.8949C174.596 27.5044 172.529 72.513 186.095 125.957Z" fill="#16140F"/>
<path d="M183.361 130.391C196.927 183.835 195.893 182.204 208.371 179.992C205.159 163.477 206.969 190.56 191.748 128.905C176.526 67.2499 179.512 46.2159 182.402 38.81C139.949 35.4636 169.794 76.9478 183.361 130.391Z" fill="#FDFFF8"/>
<path d="M183.788 129.139C194.692 183.188 195.023 181.241 180.623 185.261C176.204 169.03 187.147 193.989 174.109 131.841C161.07 69.6926 143.751 44.6317 137.137 39.4307C151.538 35.4103 172.884 75.0889 183.788 129.139Z" fill="#16140F"/>
<path d="M186.661 125.504C197.565 179.553 197.896 177.606 183.495 181.627C179.077 165.395 190.02 190.354 176.981 128.206C163.943 66.0578 146.623 40.997 140.009 35.7959C154.41 31.7756 175.757 71.4541 186.661 125.504Z" fill="#FDFFF8"/>
<path d="M16.138 150.388C23.8357 176.405 42.3323 193.869 57.4513 189.396C50.5559 187.944 34.6722 177.507 26.3 147.381C17.9278 117.255 24.9951 100.028 29.5753 95.1799C14.4563 99.6532 8.44022 124.371 16.138 150.388Z" fill="#FDFFF8"/>
<path d="M107.16 47.5138C89.9936 63.4426 82.6724 84.5979 90.808 94.7654C89.7279 88.8011 92.5799 72.3676 112.629 54.3478C132.678 36.3281 147.88 35.3292 152.975 37.0822C144.839 26.9146 124.327 31.585 107.16 47.5138Z" fill="#FDFFF8"/>
</g>
<circle cx="304.118" cy="115.331" r="12.4339" transform="rotate(-10.4223 304.118 115.331)" fill="#FFFAFA"/>
<circle cx="306.995" cy="114.801" r="9.50827" transform="rotate(-10.4223 306.995 114.801)" fill="#414141"/>
</svg>
