<svg width="472" height="565" viewBox="0 0 472 565" fill="none" xmlns="http://www.w3.org/2000/svg">
<path d="M379.414 209.408C381.973 230.397 361.71 265.08 351.258 279.797C349.338 282.357 345.627 282.869 346.139 264.44C346.779 241.403 335.261 235.644 328.222 215.167C321.183 194.691 326.302 150.538 332.701 135.18C339.1 119.822 338.46 83.9879 334.621 78.8687C330.781 73.7495 322.463 69.2702 322.463 94.8662C322.463 120.462 320.543 158.856 309.665 141.579C298.786 124.302 290.468 101.905 293.667 82.0682C296.867 62.2313 279.589 -3.67839 268.711 0.161009C257.833 4.00041 257.193 18.7182 267.431 45.594C277.669 72.4698 271.271 73.1097 274.47 89.7471C277.67 106.385 289.828 135.18 303.905 159.496C317.983 183.812 316.064 213.248 319.263 218.367C322.463 223.486 349.978 337.389 328.222 306.673C306.465 275.958 283.429 272.119 285.988 227.326L286.087 225.599C288.611 181.486 290.893 141.579 274.47 141.579C257.833 141.579 277.03 215.807 274.47 229.885C271.91 243.963 262.952 242.043 252.713 209.408C242.475 176.774 245.035 142.219 242.475 118.543C239.915 94.8662 220.718 74.3894 213.04 82.0682C205.361 89.7471 236.076 135.82 230.957 159.496C225.838 183.173 218.799 169.095 200.242 156.937C181.684 144.779 170.806 114.703 163.127 126.221C155.449 137.74 172.086 160.776 200.242 176.134C228.397 191.491 230.957 219.647 236.716 224.766C242.475 229.885 251.434 249.082 268.711 264.44C285.988 279.797 296.227 302.834 310.304 314.992C324.382 327.15 331.421 367.464 325.022 410.337C318.623 453.21 316.064 500.563 314.784 528.079C313.504 555.594 299.426 595.908 327.582 592.709C339.1 592.709 386.453 504.402 406.929 492.244C427.406 480.086 437.645 453.21 438.924 439.133C440.204 425.055 449.163 412.257 454.922 405.858C460.681 399.459 479.878 366.184 466.44 368.104C453.002 370.023 454.922 384.741 445.963 398.179C437.005 411.617 434.445 418.016 429.966 430.174C425.486 442.332 429.326 457.05 411.409 474.327C393.491 491.604 419.087 400.739 419.087 381.542C419.087 362.345 441.484 339.308 449.163 328.43C456.842 317.552 476.678 282.997 460.041 284.917C443.404 286.836 448.523 317.552 426.766 335.469C405.01 353.386 433.805 312.432 411.409 297.075C389.012 281.717 397.971 330.35 402.45 362.345C406.929 394.34 395.411 411.617 393.491 458.969C391.572 506.322 344.859 562.633 327.582 569.672C310.304 576.711 339.74 540.237 337.18 489.045C334.621 437.853 392.212 363.624 381.333 341.868C370.455 320.111 355.737 396.899 344.859 405.858C333.981 414.816 351.258 361.065 347.419 341.868C343.579 322.671 360.217 287.476 363.416 279.797C366.616 272.118 392.852 247.163 390.932 207.489C389.012 167.815 408.209 147.338 414.608 141.579C421.007 135.82 428.046 114.063 432.525 96.7859C437.005 79.5086 423.567 72.4697 419.727 89.1071C415.888 105.745 396.051 156.937 387.093 154.377C378.134 151.817 382.613 117.903 377.494 112.783C372.375 107.664 381.973 81.4283 379.414 72.4697C376.854 63.5111 370.455 50.0732 363.416 77.5889C356.377 105.105 367.896 131.341 374.295 147.338C380.694 163.336 376.214 183.172 379.414 209.408Z" fill="#F1A3B2"/>
<path d="M145.827 438.548C150.822 450.142 179.129 455.258 192.659 456.367C195.095 456.501 198.307 454.62 191.662 446.023C183.356 435.275 190.841 425.893 189.686 411.979C188.532 398.064 169.424 379.696 158.997 375.955C148.57 372.214 136.988 354.559 138.402 349.888C139.816 345.217 145.114 338.287 153.761 350.636C162.408 362.985 176.95 380.408 180.02 365.836C183.09 351.264 182.334 335.689 173.013 327.953C163.692 320.217 155.572 278.513 165.776 274.129C175.98 269.744 181.475 276.478 182.172 295.315C182.869 314.151 188.324 310.791 191.325 320.652C194.326 330.514 194.099 351.376 190.788 371.179C187.476 390.981 198.992 404.082 198.102 408.386C197.212 412.69 213.162 483.419 220.599 456.127C228.036 428.835 245.6 413.776 228.372 393.632C211.144 373.489 195.213 355.197 208.835 345.659C222.457 336.121 231.816 382.939 238.667 388.264C245.519 393.589 252.205 387.526 249.563 365.912C246.921 344.297 233.152 329.093 227.249 316.203C221.346 303.312 230.146 282.427 239.027 281.73C247.908 281.032 238.325 320.87 250.514 329.358C257.701 336.065 271.229 352.413 267.849 364.15C264.863 369.921 264.013 384.319 255.056 401.634C246.098 418.948 245.498 435.932 238.079 449.869C230.66 463.805 238.516 487.29 258.239 504.307C277.962 521.323 296.054 542.702 306.398 555.243C316.741 567.785 341.886 579.164 317.753 593.762C308.322 600.365 239.72 584.907 218.848 590.781C197.975 596.654 180.513 589.557 174.71 583.499C168.906 577.441 157.247 576.402 150.37 576.616C143.494 576.831 116.535 571.782 128.186 565.005C139.836 558.227 143.237 566.428 155.111 567.776C166.986 569.123 171.243 570.743 179.018 574.041C186.793 577.339 188.621 586.641 209.128 584.704C229.634 582.768 177.98 553.603 171.495 544.341C165.01 535.079 138.891 536.805 128.929 535.958C118.967 535.112 91.0519 529.813 105.322 521.201C119.593 512.589 125.778 530.343 149.644 526.515C173.51 522.686 136.098 519.436 149.247 499.187C162.396 478.937 171.491 507.537 178.632 525.541C185.773 543.545 201.04 545.278 218.609 567.023C236.178 588.768 293.447 589.157 309.971 582.648C326.494 576.139 290.072 575.416 274.874 549.251C259.676 523.085 187.447 520.289 189.003 503.556C190.56 486.822 228.551 515.432 240.484 513.518C252.417 511.604 220.113 495.575 216.771 484.112C213.429 472.65 187.918 465.208 182.704 463.337C177.491 461.467 147.579 464.467 135.748 444.225C123.917 423.984 101.282 425.11 94.0972 426C86.9125 426.89 73.7995 420.428 64.2954 414.66C54.7912 408.893 63.4155 397.793 72.1796 403.619C80.9436 409.445 114.479 422.771 120.949 416.4C127.419 410.029 112.295 396.234 114.757 390.83C117.219 385.425 100.497 378.27 99.5658 372.48C98.635 366.691 99.3346 356.539 114.393 365.779C129.452 375.019 128.884 394.28 129.05 405.667C129.215 417.053 139.584 424.056 145.827 438.548Z" fill="#F1A3B2"/>
</svg>
