<svg width="571" height="478" viewBox="0 0 571 478" fill="none" xmlns="http://www.w3.org/2000/svg">
<path d="M123.302 266.124C124.053 287.255 149.487 318.345 162.111 331.248C164.407 333.477 168.153 333.402 164.767 315.28C160.535 292.626 171.012 285.138 174.765 263.813C178.518 242.488 166.562 199.677 157.842 185.508C149.121 171.339 144.154 135.845 147.146 130.188C150.138 124.532 157.655 118.808 161.655 144.089C165.654 169.371 173.55 206.993 181.595 188.228C189.64 169.464 194.357 146.042 188.097 126.949C181.837 107.856 188.603 40.0559 199.947 42.1482C211.292 44.2406 214.224 58.6776 208.311 86.8231C202.398 114.969 208.818 114.601 208.258 131.534C207.697 148.467 200.188 178.808 190.083 205.026C179.978 231.243 186.474 260.017 184.113 265.573C181.753 271.129 172.374 387.932 189.064 354.194C205.753 320.457 227.907 313.065 218.379 269.222L218.012 267.532C208.626 224.355 200.135 185.295 216.357 182.729C232.79 180.129 225.428 256.446 230.156 269.95C234.884 283.455 243.432 280.159 248.446 246.325C253.459 212.492 245.531 178.761 244.359 154.976C243.188 131.19 258.949 107.965 267.734 114.35C276.518 120.735 253.38 171.041 262.136 193.627C270.892 216.212 275.644 201.207 292.074 186.299C308.503 171.39 314.548 139.985 323.932 150.161C333.317 160.338 320.483 185.691 295.073 205.26C269.663 224.829 271.535 253.038 266.646 258.995C261.758 264.951 255.909 285.312 241.244 303.181C226.579 321.049 220.066 345.403 208.061 359.611C196.056 373.82 195.403 414.738 208.423 456.085C221.442 497.432 231.37 543.803 236.934 570.78C242.497 597.758 262.702 635.377 234.392 636.616C223.015 638.416 162.446 558.594 140.32 549.785C118.195 540.976 103.883 516.03 100.419 502.325C96.9553 488.62 86.1069 477.379 79.4186 471.959C72.7303 466.538 48.5696 436.672 62.1424 436.468C75.7152 436.265 76.1189 451.102 87.0673 462.975C98.0156 474.848 101.544 480.768 107.868 492.077C114.192 503.386 112.7 518.522 133.096 532.788C153.493 547.053 114.013 461.303 111.013 442.342C108.013 423.381 82.2923 404.127 73.008 394.582C63.7236 385.037 38.7308 354.007 55.4638 353.303C72.1968 352.6 71.9401 383.738 96.2292 398.035C120.518 412.332 85.6771 376.381 105.399 357.713C125.12 339.044 123.871 388.479 124.446 420.781C125.022 453.083 139.098 468.348 148.394 514.819C157.689 561.29 212.627 609.61 230.792 613.863C248.957 618.115 214.184 586.689 208.713 535.726C203.242 484.762 134.759 420.445 142.104 397.256C149.449 374.067 175.985 447.612 188.129 454.76C200.274 461.909 174.809 411.517 175.602 391.956C176.394 372.395 154.462 340.233 150.102 333.148C145.742 326.064 115.928 305.514 111.625 266.028C107.322 226.541 85.1607 209.316 77.9404 204.627C70.72 199.939 60.3679 179.549 53.2439 163.184C46.1198 146.819 58.2927 137.767 64.6847 153.6C71.0768 169.433 98.6693 216.896 107.118 212.968C115.566 209.04 105.843 176.242 110.099 170.386C114.355 164.53 100.775 140.116 101.903 130.867C103.032 121.619 107.252 107.346 118.504 133.424C129.756 159.502 122.479 187.215 118.659 204.016C114.838 220.817 122.362 239.71 123.302 266.124Z" fill="#F1A3B2"/>
<path d="M389.825 455.948C386.703 468.18 359.543 477.657 346.353 480.866C343.967 481.379 340.501 480.024 345.721 470.493C352.246 458.58 343.387 450.483 342.352 436.558C341.318 422.634 357.321 401.507 367.036 396.182C376.75 390.858 385.431 371.609 383.304 367.217C381.178 362.824 374.862 356.807 368.251 370.356C361.64 383.904 349.999 403.386 344.69 389.472C339.381 375.559 337.693 360.058 345.69 350.96C353.688 341.862 355.192 299.401 344.428 296.666C333.665 293.93 329.289 301.44 331.544 320.153C333.799 338.867 327.886 336.401 326.463 346.61C325.04 356.819 328.524 377.39 334.889 396.432C341.254 415.474 331.927 430.213 333.479 434.325C335.031 438.438 330.328 510.789 318.718 484.995C307.108 459.2 287.406 447.071 301.275 424.483C315.144 401.894 328.021 381.338 313.076 374.046C298.131 366.754 296.203 414.459 290.267 420.789C284.332 427.119 276.781 422.176 276.013 400.414C275.245 378.652 286.469 361.483 290.285 347.829C294.101 334.174 282.146 314.921 273.265 315.62C264.384 316.319 280.075 354.169 269.361 364.458C263.311 372.205 252.503 390.467 257.676 401.531C261.527 406.765 264.616 420.853 276.169 436.555C287.722 452.257 290.969 468.939 300.475 481.545C309.98 494.151 305.891 518.575 289.069 538.465C272.248 558.354 257.718 582.297 249.461 596.301C241.205 610.305 218.147 625.473 244.265 636.121C254.611 641.169 319.955 615.181 341.489 617.721C363.023 620.261 379.161 610.522 383.947 603.631C388.733 596.741 400.086 593.893 406.912 593.03C413.738 592.167 439.576 582.968 427.01 578.094C414.443 573.221 412.366 581.852 400.848 585.039C389.33 588.225 385.378 590.49 378.214 594.963C371.05 599.435 370.697 608.908 350.14 610.2C329.583 611.492 376.045 574.614 381.003 564.452C385.961 554.291 412.03 551.914 421.737 549.521C431.444 547.129 458.188 537.533 442.747 531.257C427.307 524.98 423.972 543.483 399.801 543.43C375.63 543.378 412.073 534.322 395.922 516.376C379.77 498.43 375.257 528.099 371.016 546.998C366.776 565.898 351.967 569.994 338.012 594.218C324.058 618.441 267.553 627.774 250.215 623.927C232.877 620.08 268.739 613.675 279.662 585.456C290.584 557.236 361.489 543.188 357.337 526.904C353.184 510.619 320.131 544.814 308.045 544.788C295.96 544.762 325.363 523.883 326.872 512.039C328.381 500.194 352.417 488.857 357.274 486.195C362.131 483.533 392.144 481.822 400.667 459.981C409.19 438.139 431.723 435.714 438.958 435.47C446.194 435.227 458.136 426.796 466.622 419.614C475.108 412.432 464.855 402.816 457.109 409.939C449.363 417.063 418.322 435.466 410.936 430.184C403.55 424.903 416.333 408.914 413.057 403.961C409.781 399.007 425.179 389.327 425.194 383.463C425.208 377.599 422.931 367.681 409.501 379.161C396.072 390.64 399.642 409.576 401.258 420.849C402.874 432.121 393.727 440.658 389.825 455.948Z" fill="#F1A3B2"/>
</svg>
