<svg width="522" height="678" viewBox="0 0 522 678" fill="none" xmlns="http://www.w3.org/2000/svg">
<path d="M112.667 243.17C113.353 262.478 136.594 290.887 148.128 302.678C150.226 304.714 153.649 304.646 150.556 288.086C146.689 267.387 156.262 260.544 159.691 241.058C163.12 221.573 152.195 182.454 144.227 169.507C136.259 156.56 131.72 124.128 134.454 118.959C137.189 113.791 144.057 108.56 147.712 131.661C151.366 154.762 158.581 189.14 165.932 171.993C173.283 154.847 177.593 133.446 171.873 115.999C166.153 98.5528 172.335 36.6008 182.701 38.5127C193.067 40.4246 195.746 53.6164 190.344 79.3343C184.941 105.052 190.807 104.716 190.295 120.189C189.783 135.661 182.922 163.386 173.688 187.342C164.454 211.298 170.39 237.59 168.233 242.667C166.076 247.744 157.506 354.472 172.756 323.645C188.007 292.817 208.249 286.062 199.544 246.001L199.208 244.457C190.632 205.004 182.873 169.313 197.696 166.968C212.711 164.593 205.984 234.327 210.305 246.667C214.625 259.007 222.436 255.995 227.017 225.079C231.597 194.164 224.353 163.343 223.283 141.609C222.212 119.875 236.614 98.653 244.641 104.487C252.668 110.321 231.525 156.288 239.526 176.926C247.527 197.563 251.869 183.853 266.882 170.23C281.894 156.608 287.417 127.911 295.992 137.21C304.567 146.509 292.841 169.675 269.623 187.556C246.404 205.437 248.114 231.213 243.648 236.656C239.181 242.098 233.836 260.703 220.436 277.031C207.036 293.358 201.085 315.611 190.115 328.594C179.145 341.577 178.549 378.966 190.446 416.747C202.342 454.527 211.414 496.899 216.498 521.55C221.581 546.2 240.043 580.574 214.175 581.707C203.78 583.352 148.434 510.414 128.217 502.365C108.001 494.316 94.9228 471.522 91.7577 458.999C88.5926 446.476 78.6798 436.205 72.5685 431.252C66.4571 426.299 44.3802 399.008 56.7823 398.822C69.1844 398.636 69.5533 412.193 79.5574 423.042C89.5615 433.891 92.7852 439.301 98.5639 449.634C104.343 459.968 102.979 473.799 121.616 486.834C140.254 499.869 104.179 421.515 101.438 404.189C98.6969 386.863 75.1943 369.27 66.7107 360.549C58.2272 351.827 35.3901 323.473 50.6798 322.83C65.9696 322.187 65.735 350.64 87.9291 363.704C110.123 376.768 78.2871 343.918 96.3077 326.859C114.328 309.801 113.187 354.972 113.713 384.488C114.238 414.004 127.101 427.952 135.594 470.415C144.088 512.878 194.288 557.03 210.886 560.916C227.484 564.802 195.71 536.086 190.711 489.518C185.712 442.951 123.136 384.181 129.847 362.992C136.558 341.803 160.806 409.004 171.903 415.536C183 422.069 159.732 376.023 160.456 358.149C161.18 340.275 141.139 310.887 137.155 304.414C133.171 297.94 105.929 279.163 101.997 243.082C98.0648 207.001 77.8153 191.262 71.2177 186.978C64.6202 182.694 55.1609 164.063 48.6513 149.109C42.1417 134.155 53.2647 125.884 59.1054 140.351C64.9461 154.819 90.1588 198.189 97.8786 194.599C105.599 191.01 96.7134 161.041 100.603 155.69C104.492 150.339 92.0829 128.03 93.1139 119.58C94.1449 111.129 98.0014 98.0871 108.283 121.916C118.565 145.744 111.915 171.067 108.424 186.419C104.933 201.771 111.808 219.035 112.667 243.17Z" fill="#D5D5D5"/>
<path d="M356.201 416.622C353.349 427.799 328.531 436.458 316.479 439.39C314.299 439.86 311.132 438.621 315.902 429.912C321.864 419.026 313.769 411.628 312.824 398.905C311.879 386.181 326.501 366.876 335.378 362.011C344.255 357.146 352.187 339.557 350.244 335.544C348.3 331.53 342.53 326.032 336.489 338.412C330.448 350.792 319.811 368.593 314.96 355.88C310.108 343.166 308.566 329.002 315.874 320.689C323.182 312.376 324.556 273.577 314.721 271.078C304.886 268.578 300.887 275.44 302.948 292.54C305.008 309.639 299.605 307.386 298.305 316.714C297.004 326.043 300.188 344.84 306.004 362.239C311.82 379.638 303.298 393.107 304.716 396.864C306.134 400.622 301.837 466.733 291.228 443.163C280.619 419.594 262.617 408.51 275.289 387.87C287.962 367.23 299.728 348.447 286.072 341.784C272.416 335.121 270.655 378.711 265.231 384.495C259.808 390.279 252.908 385.763 252.206 365.877C251.505 345.992 261.761 330.304 265.247 317.828C268.734 305.351 257.81 287.758 249.695 288.397C241.58 289.036 255.918 323.621 246.128 333.023C240.6 340.102 230.724 356.788 235.451 366.898C238.97 371.681 241.792 384.554 252.349 398.902C262.906 413.249 265.873 428.492 274.558 440.011C283.244 451.53 279.507 473.847 264.136 492.021C248.766 510.195 235.489 532.073 227.945 544.869C220.4 557.665 199.331 571.525 223.196 581.254C232.65 585.867 292.358 562.121 312.035 564.442C331.712 566.762 346.458 557.864 350.831 551.567C355.204 545.271 365.578 542.669 371.815 541.88C378.052 541.092 401.662 532.686 390.179 528.233C378.696 523.779 376.798 531.667 366.274 534.578C355.749 537.49 352.138 539.56 345.592 543.646C339.046 547.733 338.724 556.389 319.94 557.57C301.156 558.75 343.61 525.052 348.141 515.767C352.671 506.482 376.491 504.31 385.361 502.124C394.231 499.938 418.669 491.17 404.56 485.435C390.451 479.7 387.403 496.606 365.317 496.559C343.231 496.511 376.531 488.236 361.773 471.838C347.014 455.44 342.89 482.55 339.016 499.819C335.141 517.088 321.609 520.831 308.858 542.966C296.107 565.1 244.476 573.627 228.633 570.112C212.791 566.597 245.559 560.744 255.54 534.959C265.521 509.174 330.31 496.337 326.516 481.457C322.722 466.578 292.519 497.823 281.476 497.799C270.433 497.776 297.299 478.697 298.679 467.874C300.058 457.052 322.02 446.692 326.458 444.26C330.897 441.827 358.321 440.264 366.109 420.306C373.896 400.349 394.486 398.133 401.097 397.91C407.709 397.688 418.621 389.984 426.375 383.421C434.129 376.859 424.761 368.072 417.683 374.582C410.605 381.091 382.241 397.906 375.492 393.08C368.743 388.254 380.424 373.645 377.43 369.118C374.436 364.592 388.506 355.747 388.52 350.389C388.533 345.03 386.452 335.968 374.181 346.457C361.91 356.947 365.172 374.25 366.649 384.55C368.125 394.85 359.767 402.651 356.201 416.622Z" fill="#D5D5D5"/>
</svg>
