<svg width="223" height="279" viewBox="0 0 223 279" fill="none" xmlns="http://www.w3.org/2000/svg">
<path d="M84.0838 26.1031C61.412 5.89169 51.2147 36.3443 48.9501 54.0971C41.7014 96.7817 78.5227 266.455 105.726 265.285C132.929 264.115 125.37 246.785 125.139 215.015C124.908 183.245 112.424 51.3673 84.0838 26.1031Z" fill="#9F9F9F"/>
<path d="M57.3268 43.7372C56.1791 39.0139 60.8085 32.0918 70.2552 29.7965C79.7019 27.5013 85.0811 32.5331 86.2287 37.2565C87.3763 41.9798 82.3513 44.9032 72.9046 47.1985C63.4578 49.4938 58.4744 48.4606 57.3268 43.7372Z" fill="#8A8A8A"/>
<path d="M50.8907 131.373C29.0234 121.756 21.0413 141.066 19.7836 151.923C15.0955 178.225 57.0239 275.64 82.0701 271.985C107.116 268.33 99.3296 258.793 97.6277 239.828C95.9258 220.864 78.2248 143.394 50.8907 131.373Z" fill="#D0D0D0"/>
<path d="M143.123 88.0864C160.559 68.138 176.928 86.0485 182.933 97.4973C199.106 124.531 200.295 249.963 173.892 256.617C147.49 263.27 151.019 249.419 144.39 227.757C137.762 206.096 121.327 113.022 143.123 88.0864Z" fill="#D0D0D0"/>
<path d="M26.3601 152.324C24.4371 147.86 27.8411 140.26 36.7696 136.414C45.6981 132.568 51.8444 136.627 53.7673 141.092C55.6902 145.556 51.2261 149.28 42.2976 153.126C33.3691 156.972 28.283 156.788 26.3601 152.324Z" fill="#A5A5A5"/>
<path d="M175.734 97.9932C175.807 93.133 169.759 87.4086 160.038 87.2634C150.318 87.1181 146.187 93.2167 146.114 98.0769C146.042 102.937 151.59 104.675 161.31 104.82C171.031 104.965 175.661 102.853 175.734 97.9932Z" fill="#A5A5A5"/>
</svg>
