<svg width="200" height="263" viewBox="0 0 200 263" fill="none" xmlns="http://www.w3.org/2000/svg">
<path d="M115.917 15.9929C136.501 -6.34187 149.632 22.9656 153.624 40.4112C165.019 82.1806 144.992 254.645 117.806 256.145C90.619 257.645 96.4439 239.657 93.562 208.018C90.68 176.378 90.1884 43.9113 115.917 15.9929Z" fill="#9F9F9F"/>
<path d="M144.273 30.9216C144.952 26.1086 139.667 19.6732 130.041 18.3142C120.415 16.9552 115.555 22.4897 114.875 27.3028C114.196 32.1158 119.483 34.533 129.109 35.892C138.735 37.251 143.594 35.7347 144.273 30.9216Z" fill="#8A8A8A"/>
<path d="M159.261 117.506C180.082 105.793 189.917 124.229 192.232 134.911C199.473 160.626 167.288 261.68 142.004 260.496C116.72 259.311 123.535 249.057 123.371 230.017C123.208 210.977 133.236 132.146 159.261 117.506Z" fill="#D0D0D0"/>
<path d="M63.233 83.4605C43.9266 65.3157 29.3904 84.7434 24.5356 96.7254C11.0889 125.213 22.1904 250.159 49.1177 254.194C76.045 258.23 71.1761 244.791 75.6512 222.584C80.1264 200.378 87.3661 106.141 63.233 83.4605Z" fill="#D0D0D0"/>
<path d="M185.726 135.953C187.202 131.322 183.071 124.092 173.808 121.139C164.546 118.186 158.827 122.828 157.35 127.459C155.874 132.09 160.681 135.359 169.944 138.312C179.206 141.265 184.25 140.584 185.726 135.953Z" fill="#A5A5A5"/>
<path d="M31.749 96.5136C31.2007 91.6839 36.6589 85.3947 46.3184 84.2981C55.9779 83.2015 60.686 88.8661 61.2343 93.6959C61.7826 98.5257 56.4316 100.798 46.772 101.895C37.1125 102.991 32.2973 101.343 31.749 96.5136Z" fill="#A5A5A5"/>
</svg>
