<svg width="348" height="270" viewBox="0 0 348 270" fill="none" xmlns="http://www.w3.org/2000/svg">
<path d="M122.174 38.4921C152.541 -3.81501 224.474 41.2825 256.644 69.1197C218.764 89.5772 134.918 131.28 102.567 134.432C62.1294 138.372 84.2142 91.3759 122.174 38.4921Z" fill="#FFE101"/>
<path d="M117.348 243.988C139.939 272.293 191.22 236.372 214.037 214.873C190.603 193.586 136.378 153.496 106.951 163.436C70.1672 175.862 89.1087 208.605 117.348 243.988Z" fill="#FFE101"/>
<path d="M325.624 150.427C343.538 158.351 339.693 165.245 335.532 167.702C333.447 168.932 330.842 172.018 312.978 176.371C295.21 180.701 289.971 189.489 286.662 195.04L286.609 195.129C276.967 211.302 241.707 239.824 177.801 224.529C97.9182 205.409 127.19 184.356 93.938 174.573C60.6857 164.79 52.1019 242.033 30.1352 200.722C8.16864 159.412 4.33046 124.719 61.6186 142.277C118.907 159.834 70.5282 87.3842 161.737 65.375C252.945 43.3657 273.848 73.5295 282.618 81.9943C300.447 99.2027 303.233 140.521 325.624 150.427Z" fill="#FFE101"/>
<circle r="10.787" transform="matrix(-0.991773 0.128012 0.128012 0.991773 279.432 111.836)" fill="#FFFAFA"/>
<circle r="8.24885" transform="matrix(-0.991773 0.128012 0.128012 0.991773 282.112 112.77)" fill="#414141"/>
<path d="M282.947 183.679C273.784 182.089 253.961 170.273 247.967 135.731" stroke="#E0A500" stroke-width="3" stroke-linecap="round"/>
<path d="M186.718 52.7862C173.414 45.5463 145.548 31.2289 140.514 31.8787" stroke="#E0A500" stroke-width="3" stroke-linecap="round"/>
<path d="M158.399 56.4413C149.487 51.8335 130.847 43.2351 127.583 45.7037" stroke="#E0A500" stroke-width="3" stroke-linecap="round"/>
<path d="M139.868 66.5321C134.265 62.7767 121.943 55.5382 117.477 56.6264" stroke="#E0A500" stroke-width="3" stroke-linecap="round"/>
<path d="M128.582 78.2255C122.979 74.4702 116.578 69.4955 110.126 69.0701" stroke="#E0A500" stroke-width="3" stroke-linecap="round"/>
<path d="M116.886 86.7514C112.887 83.8554 104.275 78.2705 101.823 79.0988" stroke="#E0A500" stroke-width="3" stroke-linecap="round"/>
<path d="M68.8999 171C59.0276 182.084 37.9676 201.991 32.7054 192.946" stroke="#E0A500" stroke-width="3" stroke-linecap="round"/>
<path d="M64.352 155.592C50.771 151.16 24.0799 145.947 25.9644 160.547" stroke="#E0A500" stroke-width="3" stroke-linecap="round"/>
<path d="M63.2156 166.615C52.9303 172.848 32.0757 185.094 30.9388 184.217" stroke="#E0A500" stroke-width="3" stroke-linecap="round"/>
<path d="M58.1606 162.149C49.0322 162.474 30.1666 164.355 27.7307 169.276" stroke="#E0A500" stroke-width="3" stroke-linecap="round"/>
<path d="M166.08 224.994C159.388 230.977 143.925 242.697 135.61 241.723" stroke="#E0A500" stroke-width="3" stroke-linecap="round"/>
<path d="M145.982 217.992C140.386 222.553 127.635 231.492 121.399 230.762" stroke="#E0A500" stroke-width="3" stroke-linecap="round"/>
<path d="M127.448 208.228C124.288 211.835 116.283 218.882 109.543 218.216" stroke="#E0A500" stroke-width="3" stroke-linecap="round"/>
<path d="M115.45 199.54L103.513 206.199" stroke="#E0A500" stroke-width="3" stroke-linecap="round"/>
<path d="M104.244 192.029L96.4688 196.232" stroke="#E0A500" stroke-width="3" stroke-linecap="round"/>
</svg>
