<svg width="264" height="277" viewBox="0 0 264 277" fill="none" xmlns="http://www.w3.org/2000/svg">
<circle cx="132" cy="145" r="132" fill="#0A3C6D"/>
<path d="M37.6141 122.441C37.0454 123.782 36.2509 124.835 35.2305 125.601C34.2164 126.353 33.0309 126.771 31.674 126.856C30.3171 126.941 28.8507 126.649 27.2747 125.98C25.7134 125.318 24.498 124.454 23.6286 123.39C22.7444 122.32 22.2285 121.119 22.0808 119.787C21.9331 118.456 22.1654 117.069 22.7779 115.625C23.4528 114.034 24.2879 112.885 25.2833 112.178C26.2702 111.449 27.4967 111.057 28.963 111.002L28.9783 114.345C28.0976 114.25 27.3513 114.411 26.7394 114.829C26.119 115.226 25.6338 115.837 25.2838 116.662C24.7589 117.9 24.7778 119.063 25.3406 120.154C25.9034 121.244 26.9876 122.13 28.593 122.811C30.2574 123.517 31.6636 123.706 32.8116 123.376C33.9596 123.046 34.8211 122.203 35.396 120.848C35.8147 119.862 35.9259 118.944 35.7295 118.096C35.5247 117.227 34.9362 116.586 33.9641 116.174L33.6327 116.033L32.011 119.855L29.7795 118.909L32.5167 112.457L40.2053 115.719L39.296 117.862L37.3839 117.208C37.8718 117.901 38.1436 118.694 38.1993 119.587C38.2404 120.474 38.0453 121.425 37.6141 122.441Z" fill="white"/>
<path d="M27.8852 101.016L39.9216 107.261C40.4186 107.519 40.8108 107.614 41.0981 107.547C41.3853 107.48 41.6321 107.247 41.8384 106.85C41.9637 106.608 42.0526 106.402 42.1053 106.231C42.1579 106.06 42.2043 105.832 42.2443 105.546L44.029 106.796C44.0458 107.112 43.9939 107.472 43.8733 107.878C43.7743 108.278 43.6327 108.655 43.4485 109.01C42.9106 110.047 42.2678 110.677 41.5202 110.902C40.7657 111.106 39.8346 110.92 38.7269 110.345L26.3709 103.935L27.8852 101.016Z" fill="white"/>
<path d="M37.7079 93.4305C38.3844 92.4394 39.1891 91.7005 40.122 91.2137C41.0548 90.7269 42.0488 90.5336 43.1039 90.634C44.1681 90.7211 45.2419 91.1345 46.3255 91.8742C47.4091 92.6139 48.1853 93.4634 48.6541 94.4227C49.1319 95.3688 49.314 96.3649 49.2004 97.4109C49.0869 98.457 48.6918 99.4756 48.0153 100.467C47.3297 101.471 46.5205 102.217 45.5876 102.703C44.6638 103.177 43.6698 103.37 42.6057 103.283C41.5505 103.183 40.4812 102.763 39.3976 102.023C38.314 101.283 37.5333 100.44 37.0555 99.4944C36.5868 98.5351 36.4046 97.539 36.5092 96.5061C36.6227 95.46 37.0223 94.4348 37.7079 93.4305ZM39.7297 94.8107C39.2245 95.5507 39.0919 96.3126 39.3318 97.0963C39.5676 97.8577 40.2074 98.5948 41.2514 99.3074C42.2953 100.02 43.2214 100.352 44.0296 100.303C44.8337 100.232 45.4883 99.8266 45.9934 99.0865C46.4896 98.3597 46.6198 97.6156 46.384 96.8541C46.1441 96.0704 45.5022 95.3223 44.4582 94.6096C43.4143 93.897 42.4903 93.5762 41.6863 93.6473C40.878 93.6961 40.2258 94.0839 39.7297 94.8107Z" fill="white"/>
<path d="M57.434 87.8573C56.8278 88.6017 56.1102 89.0903 55.281 89.323C54.4496 89.5332 53.6114 89.511 52.7665 89.2562L54.6262 90.9254L52.7925 93.1772L39.4117 82.2812L41.4878 79.7316L47.1454 84.3385C46.8466 83.6413 46.7379 82.9131 46.8194 82.1542C46.8987 81.3727 47.2313 80.6222 47.8173 79.9026C48.4234 79.1582 49.1562 78.651 50.0157 78.3811C50.8852 78.0987 51.8224 78.0881 52.8272 78.3492C53.8297 78.5878 54.8396 79.1213 55.857 79.9497C56.8743 80.7781 57.6014 81.659 58.0381 82.5924C58.4725 83.5033 58.6345 84.4193 58.5241 85.3404C58.4238 86.2491 58.0604 87.0881 57.434 87.8573ZM54.8586 87.0291C55.4244 86.3343 55.6219 85.5976 55.4512 84.819C55.2681 84.0303 54.7051 83.252 53.7622 82.4842C52.8193 81.7164 51.9493 81.3277 51.1522 81.3183C50.3428 81.2988 49.6602 81.6303 49.1045 82.3127C48.5691 82.9702 48.4065 83.7147 48.6167 84.5462C48.8145 85.3675 49.3538 86.1368 50.2347 86.8542C51.1404 87.5917 52.0092 87.969 52.8412 87.9862C53.6608 87.9933 54.3333 87.6743 54.8586 87.0291Z" fill="white"/>
<path d="M62.0192 71.0235C61.5279 70.5418 61.0052 70.3094 60.4509 70.3261C59.9079 70.3315 59.4123 70.5626 58.9643 71.0196C58.5498 71.4423 58.2942 71.92 58.1976 72.4527C58.101 72.9854 58.2313 73.5725 58.5883 74.2139L56.0054 75.6139C55.4419 74.6804 55.2509 73.664 55.4324 72.5647C55.6252 71.454 56.2648 70.3446 57.3515 69.2364C58.4493 68.1169 59.6027 67.4776 60.8118 67.3187C62.0206 67.1371 63.1505 67.5616 64.2016 68.5922L67.6802 72.0032C68.1144 72.4289 68.5331 72.4361 68.9363 72.0248C69.1268 71.8306 69.2774 71.6198 69.3884 71.3925L70.7105 72.9578C70.5678 73.4005 70.278 73.8446 69.8411 74.2901C69.3594 74.7814 68.8365 75.1089 68.2724 75.2729C67.7195 75.4254 67.1758 75.3628 66.6413 75.0852C66.7837 75.7627 66.7114 76.4649 66.4244 77.1918C66.1371 77.8961 65.7302 78.5167 65.2037 79.0537C64.3524 79.9219 63.4804 80.4226 62.5879 80.5559C61.6952 80.6665 60.8718 80.3521 60.1178 79.6127C59.4781 78.9854 59.1599 78.2701 59.1633 77.4667C59.1553 76.6522 59.4523 75.7894 60.0544 74.8784L62.3447 71.3428L62.0192 71.0235ZM62.1971 77.0466C62.4827 77.3267 62.8006 77.4367 63.1507 77.3767C63.5121 77.3053 63.8384 77.121 64.1296 76.824C64.4545 76.4927 64.7055 76.1338 64.8828 75.7474C65.06 75.361 65.1183 74.9588 65.0576 74.5407C64.9855 74.1115 64.7438 73.6952 64.3326 73.292L63.8013 72.7711L62.3969 74.9232C62.096 75.3901 61.9132 75.7935 61.8487 76.1336C61.7839 76.451 61.9 76.7554 62.1971 77.0466Z" fill="white"/>
<path d="M63.0126 56.9802L71.9632 67.1664C72.3329 67.5871 72.6638 67.8182 72.9558 67.8597C73.2479 67.9013 73.5622 67.7742 73.8988 67.4785C74.1031 67.2989 74.2608 67.1391 74.3719 66.9988C74.483 66.8586 74.609 66.6627 74.75 66.411L75.9594 68.2237C75.8607 68.5235 75.6815 68.8407 75.4218 69.1754C75.1847 69.5115 74.9159 69.8116 74.6154 70.0756C73.738 70.8466 72.9101 71.2013 72.1319 71.1397C71.355 71.0555 70.5547 70.5447 69.7309 69.6072L60.5427 59.1505L63.0126 56.9802Z" fill="white"/>
<path d="M84.5332 61.7666L72.4769 50.5068L75.5093 48.7036L84.8761 58.3517L80.914 45.4899L83.637 43.8708L93.0863 53.4697L89.0623 40.6448L91.9709 38.9152L96.1059 54.8853L92.9085 56.7865L86.5948 50.4887L84.0418 47.6509L84.0005 47.6754L85.2746 51.2737L87.8132 59.8163L84.5332 61.7666Z" fill="white"/>
<path d="M105.087 43.0814C104.861 42.4315 104.496 41.9908 103.993 41.7594C103.504 41.5227 102.957 41.5093 102.353 41.7194C101.793 41.9137 101.352 42.2279 101.029 42.6621C100.705 43.0963 100.561 43.68 100.595 44.4133L97.6593 44.5187C97.5697 43.4319 97.8506 42.4366 98.502 41.5327C99.1686 40.6236 100.235 39.9144 101.701 39.405C103.182 38.8904 104.499 38.8308 105.653 39.2261C106.817 39.601 107.64 40.4837 108.123 41.8741L109.722 46.4763C109.921 47.0506 110.293 47.2433 110.837 47.0542C111.094 46.9649 111.323 46.8431 111.523 46.6888L112.012 48.6788C111.687 49.0118 111.23 49.2807 110.64 49.4855C109.991 49.7113 109.376 49.7722 108.798 49.6682C108.235 49.5589 107.776 49.2611 107.421 48.7748C107.247 49.4449 106.87 50.0417 106.29 50.5652C105.719 51.0683 105.079 51.4432 104.368 51.69C103.22 52.0891 102.216 52.1498 101.358 51.8723C100.509 51.5743 99.9111 50.9266 99.5645 49.9291C99.2704 49.0827 99.3036 48.3005 99.6639 47.5825C100.019 46.8494 100.669 46.2087 101.613 45.6604L105.237 43.5121L105.087 43.0814ZM102.568 48.5553C102.699 48.9331 102.935 49.173 103.275 49.275C103.631 49.3717 104.005 49.3518 104.398 49.2153C104.836 49.063 105.221 48.8532 105.551 48.5859C105.882 48.3186 106.113 47.9843 106.244 47.5828C106.371 47.1663 106.339 46.686 106.15 46.1419L105.906 45.4391L103.691 46.7423C103.214 47.0266 102.871 47.3067 102.662 47.5826C102.463 47.8381 102.431 48.1623 102.568 48.5553Z" fill="white"/>
<path d="M113.698 48.5285L111.363 36.7578L114.165 36.2021L114.834 38.4671C114.974 37.6076 115.298 36.899 115.807 36.3412C116.329 35.7647 117.053 35.3846 117.979 35.2009C118.528 35.092 118.969 35.0943 119.301 35.2078L119.462 37.9897C119.296 37.9738 119.092 37.9734 118.85 37.9887C118.621 37.9852 118.326 38.0193 117.965 38.0909C117.478 38.1874 117.039 38.3969 116.646 38.7195C116.266 39.0233 115.981 39.4386 115.792 39.9654C115.6 40.4766 115.574 41.0853 115.714 41.7915L116.923 47.8888L113.698 48.5285Z" fill="white"/>
<path d="M123.083 46.5153L122.7 34.5214L125.65 34.4271L125.839 36.5822C126.213 35.7698 126.738 35.1527 127.413 34.7309C128.103 34.3087 128.873 34.084 129.72 34.0569C130.584 34.0293 131.366 34.2044 132.066 34.5822C132.782 34.9435 133.329 35.5183 133.706 36.3067C134.048 35.4953 134.597 34.8855 135.353 34.4771C136.107 34.0528 136.893 33.8276 137.708 33.8015C138.492 33.7765 139.209 33.9136 139.858 34.213C140.524 34.5119 141.059 34.975 141.464 35.6024C141.868 36.2298 142.086 37.0393 142.118 38.0308L142.369 45.8988L139.083 46.0038L138.852 38.7835C138.824 37.904 138.604 37.2867 138.192 36.9316C137.797 36.5761 137.303 36.4078 136.712 36.4267C135.976 36.4502 135.361 36.742 134.867 37.3021C134.372 37.8462 134.141 38.646 134.175 39.7014L134.381 46.1541L131.095 46.2592L130.864 39.0389C130.836 38.1593 130.616 37.542 130.205 37.187C129.809 36.8315 129.307 36.6634 128.7 36.6828C128.284 36.6961 127.872 36.8213 127.463 37.0585C127.07 37.2952 126.746 37.6577 126.489 38.1462C126.249 38.6341 126.141 39.2699 126.166 40.0535L126.369 46.4102L123.083 46.5153Z" fill="white"/>
<path d="M148.9 32.9576C147.546 32.8302 146.923 32.1851 147.033 31.0222C147.144 29.8435 147.876 29.3177 149.23 29.4451C150.584 29.5725 151.206 30.2256 151.095 31.4044C150.985 32.5673 150.254 33.085 148.9 32.9576ZM150.363 34.8309L149.239 46.7781L145.965 46.4702L147.089 34.5229L150.363 34.8309Z" fill="white"/>
<path d="M152.602 48.0567L154.699 36.2413L157.606 36.7572L157.329 38.9995C157.837 38.2446 158.474 37.7239 159.24 37.4373C160.021 37.1535 160.869 37.0927 161.783 37.2549C163.012 37.473 163.963 38.0157 164.638 38.883C165.316 39.7345 165.527 40.877 165.273 42.3106L163.897 50.0615L160.66 49.4869L161.872 42.6576C162.051 41.6494 161.969 40.9199 161.627 40.4691C161.303 40.0053 160.834 39.7189 160.219 39.6099C159.778 39.5316 159.325 39.565 158.861 39.71C158.415 39.8421 158.016 40.1207 157.664 40.5458C157.328 40.9737 157.091 41.5815 156.951 42.3692L155.839 48.6313L152.602 48.0567Z" fill="white"/>
<path d="M174.133 51.4585C175.381 51.8061 176.27 52.344 176.798 53.0723C177.326 53.8006 177.455 54.6503 177.184 55.6214C176.935 56.5154 176.473 57.1921 175.797 57.6517C175.121 58.1112 174.278 58.3664 173.267 58.4172C172.272 58.4723 171.173 58.3325 169.971 57.9978C167.982 57.4442 166.603 56.7613 165.833 55.9489C165.078 55.1408 164.825 54.2898 165.073 53.3958C165.219 52.8717 165.51 52.4544 165.945 52.1437C166.392 51.8528 167.006 51.7332 167.789 51.7851C166.863 51.1122 166.549 50.244 166.845 49.1805C166.991 48.6564 167.274 48.2369 167.694 47.9219C168.129 47.6113 168.652 47.433 169.262 47.3871C168.234 46.3699 167.919 45.1446 168.318 43.7111C168.657 42.4934 169.393 41.6686 170.526 41.2367C171.664 40.7895 173.05 40.7933 174.683 41.2481C175.608 41.5056 176.406 41.8606 177.078 42.3132C177.409 41.5417 177.921 40.9536 178.615 40.5489C179.313 40.1288 180.125 40.0475 181.05 40.3049C181.08 40.3135 181.119 40.3242 181.165 40.3371C181.212 40.35 181.258 40.3629 181.304 40.3757L181.043 42.7446C180.924 42.6948 180.788 42.6485 180.633 42.6056C180.048 42.4425 179.545 42.4272 179.126 42.5597C178.712 42.6768 178.4 42.9306 178.192 43.321C178.985 44.2893 179.208 45.3977 178.861 46.6462C178.526 47.8485 177.782 48.6711 176.629 49.1141C175.496 49.546 174.12 49.5366 172.501 49.086C171.792 48.8887 171.162 48.6468 170.611 48.3604C170.231 48.3542 169.938 48.4221 169.732 48.5642C169.546 48.6951 169.423 48.8685 169.363 49.0843C169.183 49.7316 169.586 50.1926 170.572 50.4673L174.133 51.4585ZM174.13 43.2365C173.513 43.0649 172.958 43.0928 172.462 43.3203C171.967 43.5479 171.636 43.9622 171.469 44.5633C171.301 45.1645 171.369 45.6981 171.671 46.1642C171.977 46.6149 172.438 46.926 173.055 47.0977C173.656 47.265 174.204 47.2349 174.699 47.0074C175.199 46.7644 175.532 46.3424 175.7 45.7413C175.867 45.1401 175.798 44.6142 175.491 44.1635C175.185 43.7129 174.731 43.4038 174.13 43.2365ZM170.599 55.8309C171.786 56.1613 172.705 56.2594 173.357 56.1254C174.02 56.011 174.407 55.7534 174.519 55.3526C174.6 55.0598 174.551 54.7887 174.371 54.5393C174.187 54.3054 173.795 54.1048 173.194 53.9374L169.286 52.8496C168.916 52.7467 168.582 52.7533 168.284 52.8696C167.997 53.0056 167.811 53.2278 167.725 53.5361C167.605 53.9676 167.796 54.3861 168.297 54.7915C168.814 55.2012 169.582 55.5477 170.599 55.8309Z" fill="white"/>
<mask id="mask0" mask-type="alpha" maskUnits="userSpaceOnUse" x="78" y="91" width="108" height="108">
<circle cx="131.954" cy="144.954" r="53.9544" fill="#86CCFF"/>
</mask>
<g mask="url(#mask0)">
<circle cx="131.954" cy="144.954" r="53.9544" fill="#86CCFF"/>
<path d="M137.941 177.177C114.147 164.362 167 162.414 196.4 163.042L188.195 191.312C181.358 191.94 161.735 189.993 137.941 177.177Z" fill="#6AA048"/>
<path d="M141.247 121.724C168.224 113.931 112.021 108.985 80.548 107.486C62.5631 115.879 60.5648 149.95 61.8138 165.937C64.3117 166.436 74.8528 167.136 97.034 165.937C124.761 164.438 101.53 155.446 122.513 152.448C143.495 149.451 141.247 138.21 136.001 134.463C130.756 130.716 107.525 131.466 141.247 121.724Z" fill="#6AA048"/>
</g>
</svg>
