<svg width="86" height="62" viewBox="0 0 86 62" fill="none" xmlns="http://www.w3.org/2000/svg">
<path d="M57.8586 14.615C53.6178 12.9939 50.5904 17.6288 49.6068 20.1489C51.9732 23.0179 58.0755 28.1616 63.5533 25.7839C70.4006 22.8117 63.1597 16.6414 57.8586 14.615Z" fill="#105AA3"/>
<path d="M35.9605 5.94049C29.5992 3.50881 26.6947 11.107 26.0376 15.21C29.5125 16.8219 37.2731 19.7358 40.5171 18.497C44.5722 16.9485 43.9121 8.98009 35.9605 5.94049Z" fill="#105AA3"/>
<path d="M36.5409 50.5148C29.3421 56.1231 25.9741 45.0983 25.1899 38.8849C24.9586 38.6952 25.2537 38.241 28.2846 37.9414C32.0731 37.5669 45.5394 43.5044 36.5409 50.5148Z" fill="#105AA3"/>
<path d="M58.8617 42.8252C66.5176 43.9047 65.3825 38.27 63.858 35.3178C58.4865 36.0187 47.8289 37.7693 48.1707 39.1637C48.5981 40.9067 49.292 41.4757 58.8617 42.8252Z" fill="#105AA3"/>
<path d="M79.4013 24.855C74.4767 20.4451 68.2493 26.85 67.272 31.1547C66.5613 34.2854 68.3404 35.5123 72.6811 38.1437C79.282 42.1452 85.557 30.3675 79.4013 24.855Z" fill="#105AA3"/>
<path d="M4.09132 26.6883C2.03065 35.7658 17.4437 40.3785 30.3132 41.6941C46.8023 43.3797 69.7641 38.3046 71.1855 32.0432C73.2462 22.9658 48.0943 17.7482 29.3101 13.484C17.9613 10.9077 6.15199 17.6109 4.09132 26.6883Z" fill="#105AA3"/>
<circle r="1.60518" transform="matrix(-0.975188 -0.221377 -0.221377 0.975188 12.7766 24.4634)" fill="#0A3C6D"/>
<path d="M5.77561 26.3378C6.37557 27.1755 7.86987 28.2588 9.04735 25.8906" stroke="#0A3C6D" stroke-linecap="round"/>
</svg>
