<svg width="84" height="58" viewBox="0 0 84 58" fill="none" xmlns="http://www.w3.org/2000/svg">
<path d="M27.4836 11.2509C31.8273 9.92961 34.5239 14.7644 35.3293 17.347C32.7685 20.0439 26.3222 24.7494 21.0236 21.9952C14.4004 18.5526 22.0541 12.9025 27.4836 11.2509Z" fill="#105AA3"/>
<path d="M49.9333 4.12522C56.4488 2.14327 58.8161 9.92558 59.1853 14.0645C55.6065 15.4299 47.6615 17.7954 44.5118 16.3333C40.5746 14.5056 41.7891 6.60265 49.9333 4.12522Z" fill="#105AA3"/>
<path d="M46.2445 48.5504C53.0345 54.6473 57.1635 43.8843 58.3793 37.7408C58.6233 37.5677 58.3605 37.094 55.358 36.5837C51.6048 35.9458 37.757 40.9293 46.2445 48.5504Z" fill="#105AA3"/>
<path d="M24.5146 39.3223C16.8021 39.865 18.3275 34.3233 20.0542 31.4846C25.3638 32.5586 35.8733 35.0484 35.435 36.4156C34.8871 38.1246 34.1552 38.6438 24.5146 39.3223Z" fill="#105AA3"/>
<path d="M5.27896 19.9631C10.4992 15.9074 16.2646 22.7312 16.9391 27.0936C17.4297 30.2663 15.5694 31.366 11.0556 33.6882C4.19167 37.2195 -1.24633 25.0326 5.27896 19.9631Z" fill="#105AA3"/>
<path d="M80.2775 27.0461C81.6998 36.2452 66.0025 39.7713 53.0726 40.1859C36.5061 40.717 13.9543 34.0523 12.9732 27.707C11.5508 18.5079 37.0054 15.0578 56.0414 12.1145C67.5423 10.3363 78.8551 17.847 80.2775 27.0461Z" fill="#105AA3"/>
<circle cx="71.7686" cy="24.2205" r="1.60518" transform="rotate(-8.7893 71.7686 24.2205)" fill="#0A3C6D"/>
<path d="M78.6217 26.5791C77.9648 27.3729 76.3985 28.3493 75.3891 25.9047" stroke="#0A3C6D" stroke-linecap="round"/>
</svg>
