<svg width="546" height="560" viewBox="0 0 546 560" fill="none" xmlns="http://www.w3.org/2000/svg">
<path d="M115.033 209.727C114.862 225.16 138.967 246.803 151.041 255.695C153.242 257.225 156.995 257.007 154.398 243.892C151.151 227.497 161.967 221.559 166.656 205.787C171.345 190.016 161.246 159.206 153.135 149.217C145.024 139.228 141.601 113.468 144.844 109.197C148.087 104.927 155.862 100.409 158.762 118.737C161.662 137.066 167.923 164.256 176.797 150.17C185.671 136.085 191.416 118.738 185.983 105.037C180.551 91.3368 190.287 41.4199 201.553 42.4556C212.819 43.4912 215.124 53.9292 207.974 74.7867C200.825 95.6442 207.268 95.0944 205.967 107.512C204.667 119.929 195.823 142.464 184.561 162.093C173.298 181.722 178.544 202.498 175.938 206.667C173.333 210.837 158.839 296.732 177.022 271.311C195.205 245.89 217.707 239.512 210.084 207.841C202.462 176.169 195.274 147.247 211.839 144.626C228.405 142.006 217.7 198.182 221.843 207.859C225.986 217.536 234.689 214.75 241.186 189.769C247.683 164.788 241.22 140.448 241.086 123.091C240.953 105.734 257.747 88.0477 266.263 92.3366C274.778 96.6255 249.415 134.455 257.194 150.602C264.974 166.749 270.387 155.56 287.487 143.931C304.587 132.302 312.011 109.052 320.962 116.091C329.912 123.129 315.956 142.245 289.662 157.677C263.367 173.109 264.008 193.673 258.854 198.246C253.7 202.819 246.955 217.977 231.492 231.695C216.029 245.414 208.444 263.522 195.804 274.445C183.165 285.369 180.723 315.345 191.951 345.037C203.18 374.728 211.092 408.233 215.484 427.734C219.875 447.235 238.459 473.884 210.063 476.029C198.594 477.843 141.442 422.07 119.677 416.589C97.9108 411.109 84.672 393.477 81.8029 383.598C78.9338 373.719 68.5641 365.966 62.1049 362.291C55.6458 358.616 32.7621 337.813 46.3595 337.071C59.9569 336.329 59.7127 347.17 70.155 355.381C80.5972 363.593 83.8707 367.772 89.708 375.772C95.5452 383.772 93.3897 394.916 113.187 404.465C132.984 414.014 97.2047 352.981 95.03 339.235C92.8553 325.488 67.9458 312.521 59.0678 305.941C50.1898 299.361 26.524 277.743 43.3071 276.496C60.0902 275.25 58.4726 298.051 82.165 307.453C105.857 316.856 72.5468 292.067 93.1069 277.542C113.667 263.017 110.256 299.252 109.421 322.868C108.585 346.483 122.011 357.041 129.287 390.646C136.563 424.251 189.453 457.214 207.453 459.533C225.453 461.852 192.013 440.371 188.762 403.311C185.511 366.251 119.76 322.171 128.127 304.879C136.493 287.586 159.846 340.252 171.693 344.954C183.539 349.655 160.247 313.887 161.895 299.536C163.543 285.185 142.991 262.605 138.935 257.61C134.879 252.616 105.93 238.878 103.347 210.167C100.764 181.456 79.3297 169.817 72.3059 166.701C65.2821 163.586 55.8089 149.115 49.3917 137.449C42.9745 125.783 55.557 118.626 61.2646 129.935C66.9721 141.243 92.5227 174.775 101.153 171.531C109.783 168.287 101.481 144.708 105.998 140.236C110.515 135.764 97.9858 118.489 99.5195 111.671C101.053 104.853 105.902 94.2227 116.028 112.817C126.153 131.411 117.657 152.012 113.098 164.475C108.539 176.938 115.246 190.437 115.033 209.727Z" fill="#FDFDFD"/>
<path d="M373.649 337.47C369.989 346.571 342.37 354.701 329.018 357.628C326.606 358.109 323.194 357.266 328.838 350.053C335.893 341.037 327.372 335.489 326.944 325.329C326.515 315.168 343.465 298.985 353.429 294.659C363.392 290.333 372.926 275.847 370.987 272.72C369.049 269.593 362.985 265.459 355.772 275.677C348.559 285.896 336.05 300.682 331.338 290.716C326.627 280.75 325.612 269.462 334.02 262.445C342.427 255.428 345.785 224.242 335.123 222.707C324.461 221.171 319.75 226.866 321.193 240.483C322.636 254.101 316.821 252.551 314.95 260.096C313.079 267.64 315.672 282.566 321.217 296.244C326.763 309.923 316.777 321.133 318.152 324.079C319.528 327.025 311.662 380.259 301.158 361.86C290.653 343.46 271.448 335.429 286.324 318.269C301.201 301.109 314.996 285.481 300.344 280.788C285.692 276.095 281.681 311.144 275.459 316.042C269.238 320.94 261.89 317.647 262.07 301.73C262.249 285.813 274.241 272.741 278.659 262.566C283.077 252.392 271.941 238.802 263.015 239.702C254.088 240.601 268.155 267.659 256.975 275.667C250.576 281.609 238.955 295.465 243.654 303.349C247.283 307.017 249.763 317.208 260.65 328.212C271.538 339.217 274.063 351.302 283.034 360.126C292.006 368.951 286.845 387.031 269.128 402.342C251.411 417.653 235.813 435.835 226.932 446.459C218.051 457.083 194.293 469.206 219.99 475.87C230.134 479.12 296.719 457.223 318.179 458.145C339.638 459.068 356.228 451.226 361.322 445.967C366.416 440.708 377.912 438.126 384.787 437.196C391.662 436.266 417.945 428.397 405.57 425.373C393.194 422.348 390.738 428.765 379.061 431.603C367.385 434.441 363.328 436.273 355.957 439.864C348.586 443.454 347.82 450.413 327.172 452.256C306.525 454.099 354.672 425.044 360.081 417.38C365.491 409.716 391.706 406.837 401.534 404.66C411.362 402.484 438.569 394.284 423.376 390.357C408.183 386.431 404.036 400.137 379.827 401.153C355.618 402.169 392.517 393.942 377.122 381.493C361.726 369.044 355.911 390.986 350.839 405.023C345.768 419.06 330.756 422.708 315.721 441.071C300.687 459.433 243.681 468.737 226.482 466.674C209.283 464.61 245.484 458.352 257.655 437.193C269.827 416.034 341.462 402.646 338.013 390.892C334.564 379.137 299.964 405.641 287.86 406.149C275.755 406.657 306.117 390.072 308.146 381.325C310.174 372.578 334.744 363.221 339.725 361.058C344.707 358.895 374.844 356.332 384.334 339.952C393.823 323.572 416.499 320.812 423.758 320.318C431.016 319.824 443.346 313.124 452.159 307.49C460.972 301.856 451.122 295.255 443.052 300.815C434.983 306.374 403.087 321.215 395.919 317.666C388.751 314.117 402.253 301.841 399.187 298.353C396.121 294.866 411.968 287.099 412.238 282.801C412.508 278.502 410.66 271.333 396.707 280.332C382.754 289.331 385.505 303.054 386.632 311.246C387.759 319.437 378.225 326.093 373.649 337.47Z" fill="#FDFDFD"/>
</svg>
