<svg width="475" height="491" viewBox="0 0 475 491" fill="none" xmlns="http://www.w3.org/2000/svg">
<path d="M382.555 151.814C385.135 167.03 364.708 192.174 354.172 202.843C352.237 204.699 348.495 205.07 349.011 191.71C349.656 175.009 338.045 170.834 330.95 155.989C323.854 141.144 329.014 109.135 335.465 98.0008C341.916 86.8671 341.271 60.8884 337.4 57.1771C333.53 53.4659 325.144 50.2185 325.144 68.7748C325.144 87.331 323.209 115.165 312.243 102.64C301.277 90.1144 292.891 73.8777 296.116 59.4967C299.341 45.1156 281.925 -2.66671 270.959 0.116726C259.993 2.90016 259.348 13.57 269.669 33.0541C279.99 52.5381 273.539 53.002 276.764 65.0636C279.99 77.1251 292.246 98.0009 306.437 115.629C320.629 133.258 318.693 154.597 321.919 158.309C325.144 162.02 352.882 244.595 330.95 222.328C309.017 200.06 285.795 197.277 288.375 164.803C290.956 132.33 293.536 102.64 276.764 102.64C259.993 102.64 279.345 156.453 276.764 166.659C274.184 176.865 265.153 175.473 254.832 151.814C244.511 128.155 247.091 103.104 244.511 85.9393C241.931 68.7748 222.579 53.9297 214.838 59.4967C207.098 65.0636 238.061 98.4648 232.9 115.629C227.74 132.794 220.644 122.588 201.937 113.774C183.23 104.959 172.264 83.1559 164.523 91.5062C156.783 99.8565 173.554 116.557 201.937 127.691C230.32 138.825 232.9 159.236 238.706 162.948C244.511 166.659 253.542 180.576 270.959 191.71C288.375 202.843 298.696 219.544 312.888 228.358C327.079 237.173 334.175 266.399 327.724 297.48C321.274 328.562 318.693 362.891 317.403 382.839C316.113 402.787 301.922 432.013 330.305 429.693C341.916 429.693 389.65 365.674 410.292 356.86C430.934 348.046 441.255 328.562 442.545 318.356C443.835 308.15 452.866 298.872 458.672 294.233C464.477 289.594 483.829 265.471 470.283 266.862C456.737 268.254 458.672 278.924 449.641 288.666C440.61 298.408 438.03 303.047 433.514 311.861C428.999 320.676 432.869 331.345 414.808 343.871C396.746 356.396 422.548 290.522 422.548 276.604C422.548 262.687 445.126 245.987 452.866 238.1C460.607 230.214 480.604 205.163 463.832 206.555C447.061 207.946 452.221 230.214 430.289 243.203C408.357 256.193 437.385 226.503 414.808 215.369C392.23 204.235 401.261 239.492 405.777 262.687C410.292 285.883 398.681 298.408 396.746 332.737C394.811 367.066 347.721 407.89 330.305 412.993C312.888 418.096 342.561 391.653 339.98 354.541C337.4 317.428 395.456 263.615 384.49 247.842C373.524 232.07 358.687 287.738 347.721 294.233C336.755 300.728 354.172 261.759 350.301 247.842C346.431 233.925 363.203 208.41 366.428 202.843C369.653 197.277 396.101 179.184 394.166 150.422C392.231 121.66 411.582 106.815 418.033 102.64C424.484 98.4648 431.579 82.6919 436.095 70.1665C440.61 57.641 427.064 52.538 423.194 64.5996C419.323 76.6612 399.326 113.774 390.295 111.918C381.264 110.062 385.78 85.4754 380.619 81.7641C375.459 78.0529 385.135 59.0327 382.555 52.538C379.974 46.0434 373.524 36.3013 366.428 56.2493C359.332 76.1972 370.943 95.2174 377.394 106.815C383.845 118.413 379.329 132.794 382.555 151.814Z" fill="#FDFDFD"/>
<path d="M147.076 318.399C152.114 326.816 180.663 330.531 194.309 331.336C196.766 331.433 200.005 330.068 193.303 323.825C184.926 316.022 192.475 309.211 191.311 299.108C190.146 289.006 170.875 275.671 160.359 272.955C149.842 270.238 138.161 257.42 139.587 254.029C141.013 250.637 146.356 245.606 155.077 254.572C163.799 263.538 178.465 276.187 181.561 265.608C184.658 255.028 183.896 243.72 174.495 238.103C165.094 232.487 156.905 202.208 167.196 199.025C177.487 195.842 183.03 200.731 183.732 214.407C184.435 228.083 189.937 225.643 192.964 232.803C195.99 239.962 195.762 255.11 192.422 269.487C189.082 283.864 200.696 293.375 199.798 296.5C198.901 299.625 214.988 350.976 222.488 331.161C229.989 311.347 247.703 300.413 230.328 285.788C212.952 271.164 196.885 257.884 210.624 250.959C224.362 244.034 233.801 278.025 240.711 281.891C247.621 285.757 254.365 281.355 251.7 265.662C249.035 249.97 235.148 238.931 229.195 229.572C223.242 220.213 232.117 205.05 241.074 204.544C250.031 204.038 240.366 232.961 252.66 239.123C259.908 243.993 273.552 255.862 270.143 264.383C267.131 268.574 266.275 279.027 257.24 291.598C248.206 304.168 247.6 316.499 240.118 326.618C232.636 336.736 240.559 353.787 260.451 366.141C280.342 378.496 298.59 394.017 309.022 403.123C319.454 412.228 344.814 420.49 320.474 431.088C310.963 435.883 241.774 424.66 220.722 428.924C199.671 433.188 182.059 428.036 176.206 423.637C170.352 419.239 158.594 418.484 151.658 418.64C144.722 418.796 117.533 415.13 129.284 410.21C141.034 405.289 144.464 411.243 156.44 412.222C168.416 413.2 172.71 414.376 180.551 416.77C188.392 419.165 190.237 425.918 210.919 424.512C231.601 423.107 179.505 401.932 172.964 395.207C166.423 388.483 140.08 389.736 130.033 389.121C119.986 388.507 91.8317 384.66 106.224 378.407C120.617 372.155 126.855 385.045 150.925 382.265C174.996 379.485 137.264 377.125 150.525 362.424C163.787 347.722 172.959 368.486 180.162 381.558C187.364 394.63 202.762 395.887 220.481 411.675C238.2 427.463 295.96 427.745 312.625 423.019C329.291 418.293 292.556 417.769 277.228 398.772C261.9 379.775 189.052 377.745 190.622 365.596C192.192 353.447 230.508 374.219 242.544 372.829C254.579 371.439 221.998 359.802 218.628 351.48C215.257 343.157 189.527 337.754 184.269 336.396C179.011 335.038 148.843 337.217 136.911 322.52C124.978 307.824 102.149 308.642 94.9031 309.288C87.6569 309.934 74.4316 305.243 64.846 301.056C55.2605 296.868 63.9587 288.809 72.7978 293.039C81.6369 297.269 115.459 306.944 121.985 302.318C128.511 297.693 113.256 287.677 115.739 283.754C118.222 279.83 101.357 274.635 100.419 270.431C99.4798 266.228 100.185 258.857 115.373 265.566C130.56 272.274 129.988 286.259 130.155 294.526C130.321 302.793 140.779 307.877 147.076 318.399Z" fill="#FDFDFD"/>
</svg>
