<svg width="547" height="346" viewBox="0 0 547 346" fill="none" xmlns="http://www.w3.org/2000/svg">
<path d="M115.459 210.598C115.288 226.031 139.393 247.673 151.467 256.566C153.669 258.096 157.422 257.878 154.825 244.762C151.578 228.368 162.394 222.43 167.083 206.658C171.771 190.887 161.673 160.077 153.561 150.088C145.45 140.099 142.028 114.338 145.271 110.068C148.514 105.798 156.289 101.28 159.189 119.608C162.088 137.936 168.349 165.126 177.223 151.041C186.097 136.956 191.843 119.608 186.41 105.908C180.977 92.2076 190.713 42.2907 201.98 43.3263C213.246 44.362 215.55 54.8 208.401 75.6575C201.251 96.5149 207.695 95.9652 206.394 108.383C205.093 120.8 196.25 143.334 184.987 162.964C173.725 182.593 178.971 203.368 176.365 207.538C173.759 211.708 159.266 297.603 177.449 272.182C195.632 246.761 218.134 240.383 210.511 208.711C202.888 177.04 195.7 148.118 212.266 145.497C228.831 142.877 218.126 199.053 222.27 208.73C226.413 218.407 235.115 215.621 241.613 190.64C248.11 165.659 241.647 141.319 241.513 123.962C241.379 106.605 258.174 88.9184 266.689 93.2074C275.205 97.4963 249.842 135.326 257.621 151.473C265.4 167.62 270.814 156.431 287.914 144.802C305.013 133.173 312.438 109.923 321.388 116.961C330.339 124 316.383 143.116 290.088 158.548C263.794 173.98 264.435 194.544 259.281 199.117C254.126 203.69 247.381 218.847 231.918 232.566C216.455 246.284 208.871 264.393 196.231 275.316C183.591 286.24 181.15 316.215 192.378 345.907C203.606 375.599 211.519 409.103 215.91 428.605C220.302 448.106 238.886 474.755 210.489 476.899C199.021 478.714 141.869 422.94 120.103 417.46C98.3374 411.98 85.0986 394.348 82.2295 384.469C79.3604 374.59 68.9907 366.837 62.5315 363.162C56.0724 359.487 33.1887 338.684 46.7861 337.942C60.3835 337.2 60.1393 348.041 70.5816 356.252C81.0238 364.463 84.2973 368.642 90.1346 376.643C95.9719 384.643 93.8163 395.787 113.613 405.336C133.411 414.885 97.6313 353.852 95.4566 340.105C93.2819 326.359 68.3724 313.392 59.4944 306.812C50.6164 300.232 26.9506 278.613 43.7337 277.367C60.5168 276.121 58.8992 298.921 82.5916 308.324C106.284 317.727 72.9734 292.937 93.5335 278.412C114.094 263.888 110.683 300.122 109.847 323.738C109.012 347.354 122.438 357.911 129.713 391.516C136.989 425.121 189.879 458.085 207.88 460.404C225.88 462.723 192.439 441.242 189.189 404.182C185.938 367.122 120.187 323.042 128.553 305.749C136.92 288.457 160.273 341.123 172.119 345.825C183.965 350.526 160.673 314.758 162.322 300.407C163.97 286.056 143.417 263.475 139.362 258.481C135.306 253.486 106.356 239.749 103.773 211.038C101.19 182.327 79.7563 170.688 72.7325 167.572C65.7087 164.456 56.2355 149.986 49.8183 138.32C43.4011 126.654 55.9836 119.497 61.6912 130.806C67.3988 142.114 92.9493 175.646 101.579 172.402C110.209 169.158 101.907 145.579 106.424 141.107C110.942 136.634 98.4124 119.36 99.9461 112.542C101.48 105.724 106.329 95.0934 116.454 113.688C126.58 132.282 118.084 152.883 113.525 165.346C108.965 177.809 115.673 191.308 115.459 210.598Z" fill="#FBDDE3"/>
<path d="M374.076 338.34C370.415 347.441 342.797 355.572 329.445 358.499C327.033 358.979 323.62 358.137 329.264 350.924C336.319 341.908 327.799 336.36 327.37 326.199C326.942 316.039 343.892 299.856 353.855 295.53C363.818 291.204 373.353 276.718 371.414 273.591C369.475 270.464 363.412 266.329 356.199 276.548C348.986 286.766 336.476 301.553 331.765 291.587C327.053 281.62 326.039 270.333 334.446 263.316C342.854 256.299 346.212 225.113 335.55 223.577C324.888 222.041 320.177 227.737 321.62 241.354C323.063 254.971 317.247 253.422 315.376 260.966C313.506 268.511 316.098 283.436 321.644 297.115C327.189 310.794 317.204 322.003 318.579 324.949C319.954 327.896 312.089 381.13 301.584 362.73C291.079 344.331 271.874 336.3 286.751 319.14C301.627 301.979 315.422 286.352 300.77 281.659C286.119 276.966 282.107 312.014 275.886 316.913C269.665 321.811 262.316 318.517 262.496 302.601C262.676 286.684 274.668 273.611 279.085 263.437C283.503 253.263 272.367 239.673 263.441 240.573C254.515 241.472 268.581 268.53 257.401 276.538C251.003 282.48 239.381 296.335 244.08 304.219C247.709 307.887 250.189 318.078 261.077 329.083C271.964 340.088 274.489 352.172 283.461 360.997C292.433 369.822 287.271 387.902 269.554 403.213C251.837 418.523 236.239 436.706 227.358 447.329C218.478 457.953 194.72 470.076 220.417 476.741C230.56 479.99 297.146 458.094 318.605 459.016C340.064 459.938 356.654 452.097 361.748 446.838C366.843 441.579 378.339 438.996 385.214 438.066C392.089 437.136 418.371 429.267 405.996 426.243C393.621 423.219 391.164 429.636 379.488 432.474C367.812 435.311 363.754 437.144 356.384 440.734C349.013 444.325 348.247 451.283 327.599 453.127C306.951 454.97 355.098 425.915 360.508 418.251C365.918 410.587 392.133 407.708 401.961 405.531C411.789 403.354 438.995 395.155 423.803 391.228C408.61 387.301 404.463 401.008 380.254 402.023C356.044 403.039 392.944 394.812 377.548 382.364C362.152 369.915 356.337 391.857 351.266 405.894C346.194 419.93 331.182 423.579 316.148 441.941C301.113 460.304 244.107 469.608 226.908 467.545C209.709 465.481 245.91 459.223 258.082 438.064C270.253 416.905 341.889 403.517 338.44 391.762C334.99 380.008 300.391 406.512 288.286 407.02C276.182 407.528 306.544 390.943 308.572 382.196C310.601 373.449 335.17 364.092 340.152 361.929C345.133 359.765 375.271 357.203 384.76 340.823C394.25 324.443 416.926 321.683 424.184 321.189C431.442 320.695 443.772 313.995 452.585 308.361C461.399 302.727 451.548 296.126 443.479 301.685C435.409 307.244 403.514 322.086 396.346 318.537C389.178 314.988 402.679 302.712 399.614 299.224C396.548 295.736 412.394 287.97 412.665 283.671C412.935 279.373 411.086 272.203 397.134 281.203C383.181 290.202 385.931 303.925 387.059 312.116C388.186 320.308 378.651 326.964 374.076 338.34Z" fill="#FBDDE3"/>
</svg>
