<svg width="264" height="271" viewBox="0 0 264 271" fill="none" xmlns="http://www.w3.org/2000/svg">
<circle cx="132" cy="139" r="132" fill="#0A3C6D"/>
<path d="M39.8986 75.2809L54.1922 82.1072L52.9096 84.7927L45.4596 81.2347L41.3419 79.1086L41.3212 79.1519L51.0582 88.6693L49.8895 91.1165L36.3773 89.504L36.3566 89.5473L40.6088 91.3919L48.0588 94.9498L46.7659 97.6569L32.4723 90.8306L34.5409 86.4992L43.5682 87.6455L47.2295 88.277L47.2502 88.2337L44.4897 85.7717L37.892 79.4824L39.8986 75.2809Z" fill="white"/>
<path d="M45.9977 70.5753C45.2049 71.6803 44.334 71.8924 43.385 71.2114C42.423 70.5212 42.3384 69.6236 43.1313 68.5186C43.9241 67.4136 44.8016 67.2062 45.7635 67.8965C46.7125 68.5774 46.7906 69.4704 45.9977 70.5753ZM48.3531 70.2568L58.103 77.2525L56.1861 79.924L46.4363 72.9282L48.3531 70.2568Z" fill="white"/>
<path d="M59.7038 74.8645L50.8698 66.7429L52.8677 64.5697L54.6097 66.0082C54.2463 65.1742 54.1497 64.3573 54.3199 63.5575C54.501 62.7459 54.9056 61.9985 55.5336 61.3154C56.3783 60.3966 57.3477 59.886 58.4417 59.7834C59.5241 59.67 60.6011 60.106 61.673 61.0914L67.4681 66.4192L65.2427 68.8397L60.1367 64.1454C59.3829 63.4524 58.7238 63.129 58.1596 63.1754C57.5944 63.1991 57.1007 63.4407 56.6783 63.9C56.3751 64.2298 56.1598 64.6296 56.0323 65.0992C55.9039 65.5462 55.9243 66.0323 56.0936 66.5574C56.2737 67.0707 56.6582 67.5981 57.2471 68.1395L61.9291 72.444L59.7038 74.8645Z" fill="white"/>
<path d="M61.6837 53.3755C60.6538 54.2637 59.7575 54.2657 58.9946 53.3812C58.2213 52.4846 58.3495 51.5922 59.3794 50.7039C60.4092 49.8157 61.3108 49.8198 62.0841 50.7164C62.847 51.6008 62.7135 52.4872 61.6837 53.3755ZM64.0481 53.6181L71.8858 62.7049L69.396 64.8524L61.5583 55.7656L64.0481 53.6181Z" fill="white"/>
<path d="M73.848 60.8708L67.0827 50.9596L69.5208 49.2954L70.8918 51.091C70.7267 50.1964 70.8176 49.3788 71.1645 48.6383C71.5246 47.8888 72.0879 47.2525 72.8544 46.7293C73.8851 46.0257 74.945 45.7478 76.0339 45.8957C77.1137 46.0303 78.0641 46.6989 78.885 47.9014L83.323 54.4031L80.6074 56.2568L76.697 50.5282C76.1197 49.6824 75.551 49.2182 74.9909 49.1356C74.4351 49.0308 73.8994 49.1542 73.384 49.506C73.014 49.7586 72.7138 50.0992 72.4832 50.5277C72.2569 50.934 72.1667 51.4121 72.2127 51.9619C72.2719 52.5027 72.527 53.1034 72.978 53.7642L76.5636 59.0171L73.848 60.8708Z" fill="white"/>
<path d="M91.1389 47.8864C92.3039 47.3186 93.3255 47.1321 94.2037 47.3271C95.0819 47.5221 95.7418 48.0726 96.1834 48.9787C96.59 49.8129 96.6926 50.6261 96.4914 51.4184C96.2902 52.2106 95.8281 52.9609 95.1054 53.6691C94.397 54.3704 93.4819 54.9944 92.36 55.5411C90.5047 56.4454 89.0193 56.8489 87.904 56.7518C86.8031 56.6476 86.0493 56.1784 85.6427 55.3442C85.4044 54.8552 85.3451 54.3501 85.4649 53.8289C85.6061 53.3151 85.9868 52.8181 86.6071 52.3378C85.4682 52.4479 84.6569 52.0067 84.1732 51.0143C83.9349 50.5253 83.8684 50.0237 83.9738 49.5096C84.0936 48.9884 84.3668 48.5082 84.7935 48.0688C83.3488 47.9898 82.3005 47.2815 81.6486 45.9439C81.0948 44.8076 81.0989 43.7021 81.6608 42.6273C82.2157 41.5381 83.2554 40.622 84.78 39.8789C85.6429 39.4583 86.4757 39.1949 87.2782 39.0885C87.0144 38.2915 87.008 37.5115 87.259 36.7484C87.5031 35.9709 88.0566 35.3718 88.9195 34.9512C88.9483 34.9372 88.9842 34.9197 89.0274 34.8987C89.0705 34.8776 89.1137 34.8566 89.1568 34.8356L90.5325 36.7816C90.4104 36.8233 90.2774 36.8792 90.1336 36.9493C89.5871 37.2156 89.201 37.5373 88.9753 37.9143C88.7427 38.2769 88.6778 38.6734 88.7808 39.1038C90.0167 39.3023 90.9186 39.9841 91.4864 41.1491C92.0331 42.271 92.0219 43.38 91.4526 44.4762C90.8907 45.5511 89.8547 46.4565 88.3445 47.1925C87.6829 47.515 87.0508 47.7519 86.4481 47.9032C86.1594 48.1507 85.9852 48.3958 85.9255 48.6385C85.8731 48.8598 85.896 49.0711 85.9942 49.2725C86.2886 49.8765 86.896 49.9543 87.8165 49.5056L91.1389 47.8864ZM85.6842 41.7343C85.1089 42.0147 84.7114 42.4042 84.4917 42.9029C84.272 43.4016 84.2988 43.9314 84.5722 44.4923C84.8455 45.0532 85.2498 45.4079 85.785 45.5565C86.3132 45.6907 86.8649 45.6175 87.4402 45.3371C88.0011 45.0638 88.3915 44.6777 88.6112 44.1791C88.8239 43.666 88.7936 43.129 88.5202 42.5681C88.2468 42.0072 87.8461 41.6596 87.3179 41.5255C86.7897 41.3913 86.2452 41.4609 85.6842 41.7343ZM91.3932 53.5027C92.5007 52.9629 93.2539 52.4267 93.6529 51.8941C94.0732 51.3688 94.1923 50.9192 94.01 50.5452C93.8769 50.272 93.6603 50.1016 93.3605 50.0342C93.0676 49.9811 92.6407 50.0913 92.0798 50.3647L88.4338 52.1416C88.0886 52.3099 87.843 52.5364 87.697 52.8211C87.5724 53.1133 87.5802 53.4031 87.7204 53.6908C87.9167 54.0935 88.337 54.2802 88.9813 54.251C89.64 54.2148 90.444 53.9653 91.3932 53.5027Z" fill="white"/>
<path d="M114.918 37.7274C114.852 39.3505 114.337 40.687 113.373 41.7367C112.406 42.771 111.149 43.493 109.602 43.9028C108.087 44.3044 106.688 44.3356 105.406 43.9965C104.14 43.6534 103.05 42.974 102.135 41.9583C101.236 40.9386 100.569 39.609 100.135 37.9696C99.7006 36.3302 99.6293 34.8428 99.9211 33.5076C100.213 32.1723 100.824 31.0422 101.754 30.1171C102.684 29.192 103.891 28.5328 105.376 28.1394C106.938 27.7255 108.364 27.7036 109.654 28.0736C110.955 28.424 111.991 29.209 112.761 30.4285L110.187 32.4264C109.678 31.5681 109.101 31.0173 108.458 30.774C107.81 30.5153 107.061 30.4987 106.21 30.7241C104.942 31.0601 104.05 31.7847 103.533 32.8981C103.029 33.9918 103.002 35.3893 103.453 37.0906C103.899 38.7765 104.599 39.9814 105.552 40.7054C106.506 41.4294 107.655 41.6132 109.001 41.2566C109.836 41.0354 110.496 40.6205 110.98 40.0122C111.48 39.3998 111.732 38.6045 111.738 37.6264L114.918 37.7274Z" fill="white"/>
<path d="M121.95 28.9272C123.143 28.7995 124.228 28.9329 125.203 29.3273C126.179 29.7217 126.97 30.3531 127.578 31.2213C128.202 32.0878 128.584 33.1734 128.723 34.4779C128.863 35.7825 128.72 36.9242 128.293 37.9031C127.883 38.8804 127.243 39.6649 126.373 40.2569C125.503 40.8488 124.471 41.2086 123.278 41.3364C122.069 41.4658 120.977 41.3333 120.001 40.9388C119.042 40.5427 118.25 39.9114 117.626 39.0448C117.018 38.1766 116.645 37.0902 116.505 35.7856C116.365 34.4811 116.501 33.3402 116.911 32.363C117.337 31.3841 117.977 30.5995 118.831 30.0093C119.701 29.4173 120.741 29.0566 121.95 28.9272ZM122.211 31.3613C121.32 31.4567 120.654 31.8498 120.213 32.5406C119.786 33.2139 119.64 34.1789 119.774 35.4357C119.909 36.6926 120.257 37.6128 120.818 38.1963C121.394 38.7623 122.127 38.9976 123.018 38.9023C123.893 38.8086 124.544 38.4252 124.97 37.7519C125.411 37.0611 125.565 36.0872 125.43 34.8304C125.296 33.5736 124.941 32.6622 124.365 32.0962C123.804 31.5126 123.086 31.2677 122.211 31.3613Z" fill="white"/>
<path d="M139.086 33.0353C139.117 32.348 138.941 31.8035 138.559 31.4019C138.192 31.001 137.689 30.7862 137.05 30.7574C136.459 30.7307 135.932 30.8592 135.471 31.1427C135.01 31.4262 134.66 31.915 134.42 32.6089L131.654 31.6194C131.973 30.5767 132.603 29.7562 133.543 29.1579C134.498 28.5603 135.752 28.2964 137.302 28.3663C138.868 28.4368 140.114 28.8693 141.039 29.6638C141.981 30.4429 142.419 31.5678 142.353 33.0383L142.134 37.9053C142.106 38.5127 142.38 38.8294 142.956 38.8553C143.227 38.8675 143.485 38.8391 143.728 38.77L143.445 40.7993C143.02 40.9883 142.496 41.0688 141.872 41.0408C141.185 41.0098 140.592 40.8389 140.094 40.5282C139.611 40.2182 139.295 39.7715 139.145 39.1882C138.735 39.7463 138.164 40.161 137.431 40.4323C136.715 40.6883 135.981 40.7994 135.23 40.7656C134.015 40.7109 133.06 40.3956 132.366 39.8197C131.688 39.2286 131.372 38.4056 131.42 37.3507C131.46 36.4556 131.781 35.7413 132.381 35.2078C132.982 34.6583 133.823 34.3037 134.904 34.1442L139.065 33.4908L139.086 33.0353ZM134.718 37.1869C134.7 37.5865 134.831 37.8967 135.109 38.1175C135.403 38.3389 135.758 38.459 136.174 38.4777C136.637 38.4986 137.072 38.4461 137.478 38.3203C137.884 38.1944 138.223 37.9694 138.494 37.6453C138.765 37.3052 138.914 36.8474 138.94 36.272L138.973 35.5287L136.433 35.9188C135.885 36.0062 135.462 36.1394 135.166 36.3182C134.886 36.4818 134.737 36.7714 134.718 37.1869Z" fill="white"/>
<path d="M150.974 24.8145L148.7 38.1826C148.606 38.7346 148.635 39.1372 148.787 39.3902C148.939 39.6432 149.235 39.8073 149.677 39.8824C149.945 39.928 150.169 39.9498 150.347 39.9478C150.526 39.9457 150.758 39.9202 151.042 39.8712L150.396 41.9523C150.101 42.0644 149.742 42.125 149.318 42.1342C148.908 42.1617 148.505 42.142 148.111 42.0749C146.96 41.8791 146.163 41.4595 145.72 40.8162C145.296 40.1598 145.189 39.2165 145.398 37.9861L147.732 24.2632L150.974 24.8145Z" fill="white"/>
<path d="M137.947 84C88.1889 88.1965 75.2498 127.214 75 146.197C88.4886 123.716 98.2304 119.22 110.22 117.722C110.97 95.9899 124.458 94.4911 137.947 84Z" fill="#C4C4C4"/>
<mask id="mask0" mask-type="alpha" maskUnits="userSpaceOnUse" x="92" y="100" width="97" height="94">
<path d="M98.9614 114.4C97.8851 113.238 97.897 111.44 98.9887 110.293L101.311 107.852C102.4 106.708 104.189 106.604 105.403 107.614L185.782 174.486C187.096 175.579 187.232 177.548 186.081 178.812L174.679 191.335C173.496 192.634 171.454 192.643 170.26 191.354L98.9614 114.4Z" fill="#C4C4C4"/>
</mask>
<g mask="url(#mask0)">
<path d="M94.3094 120.077C93.3664 118.906 93.4363 117.217 94.473 116.128L103.966 106.152C104.997 105.069 106.667 104.91 107.884 105.779L193.581 167.012C195.055 168.065 195.266 170.173 194.032 171.498L165.099 202.544C163.853 203.88 161.713 203.803 160.567 202.38L94.3094 120.077Z" fill="#C4C4C4"/>
<path d="M177.801 213.92L208.943 180.213C210.135 178.922 209.968 176.888 208.581 175.809L158.837 137.099C157.613 136.147 155.866 136.284 154.806 137.415L131.757 162.002C130.704 163.125 130.672 164.863 131.683 166.024L173.335 213.855C174.507 215.201 176.589 215.232 177.801 213.92Z" fill="#010101"/>
</g>
</svg>
