<svg width="594" height="549" viewBox="0 0 594 549" fill="none" xmlns="http://www.w3.org/2000/svg">
<path d="M293.8 68.2152C122.515 -22.6114 103.96 140.81 116.092 233.874C74.4605 232.684 -6.94738 258.437 0.47497 370.971C7.89732 483.504 133.935 447.373 196.025 415.241C213.392 414.527 239.846 421.239 206.731 453.8C165.337 494.5 151.777 546.626 217.436 581.614C201.259 594.705 170.475 626.599 176.756 649.448C116.33 625.885 -5.23452 591.753 34.732 752.271C46.1933 798.303 150.92 854.522 196.025 723.709L229.569 757.269C200.545 770.36 138.93 809.537 124.657 861.52C88.0206 851.523 18.7454 851.952 34.732 933.638C54.7152 1035.75 144.64 970.055 170.333 929.354C214.581 924.832 305.933 935.923 317.352 1016.47C326.207 1078.92 387.579 1079.87 408.704 1002.19C435.111 905.077 353.75 861.52 328.771 861.52C347.565 836.766 372.592 780.261 322.348 752.271C405.707 740.275 402.757 661.111 390.862 623.029C402.281 622.457 412.273 603.749 415.841 594.467C440.106 614.936 506.194 625.171 576.421 502.355C646.647 379.539 489.589 370.257 402.281 380.967C455.379 306.135 371.117 259.341 322.348 245.299C366.311 221.307 362.552 147.236 355.178 113.2C380.87 113.2 454.38 58.2186 402.281 11.8056C360.602 -25.3247 312.594 33.941 293.8 68.2152Z" fill="#47B2EE" fill-opacity="0.4"/>
</svg>
