<svg width="594" height="900" viewBox="0 0 594 900" fill="none" xmlns="http://www.w3.org/2000/svg">
<path d="M300.2 -3.78481C471.485 -94.6114 490.04 68.8098 477.908 161.874C519.539 160.684 600.947 186.437 593.525 298.971C586.103 411.504 460.065 375.373 397.975 343.241C380.608 342.527 354.154 349.239 387.269 381.8C428.663 422.5 442.223 474.626 376.564 509.614C392.741 522.705 423.525 554.599 417.244 577.448C477.67 553.885 599.235 519.753 559.268 680.271C547.807 726.303 443.08 782.522 397.975 651.709L364.431 685.269C393.455 698.36 455.07 737.537 469.343 789.52C505.979 779.523 575.255 779.952 559.268 861.638C539.285 963.747 449.36 898.055 423.667 857.354C379.419 852.832 288.067 863.923 276.648 944.468C267.793 1006.92 206.421 1007.87 185.296 930.187C158.889 833.077 240.25 789.52 265.229 789.52C246.435 764.766 221.408 708.261 271.652 680.271C188.293 668.275 191.243 589.111 203.138 551.029C191.719 550.457 181.727 531.749 178.159 522.467C153.894 542.936 87.8062 553.171 17.5793 430.355C-52.6475 307.539 104.411 298.257 191.719 308.967C138.621 234.135 222.883 187.341 271.652 173.299C227.689 149.307 231.448 75.2363 238.822 41.2001C213.13 41.2001 139.62 -13.7814 191.719 -60.1944C233.398 -97.3247 281.406 -38.059 300.2 -3.78481Z" fill="#47B2EE" fill-opacity="0.4"/>
</svg>
