<svg width="223" height="206" viewBox="0 0 223 206" fill="none" xmlns="http://www.w3.org/2000/svg">
<path d="M84.0837 26.1031C61.4119 5.89169 51.2147 36.3443 48.95 54.0971C41.7013 96.7817 78.5227 266.455 105.726 265.285C132.929 264.115 125.37 246.785 125.139 215.015C124.908 183.245 112.423 51.3673 84.0837 26.1031Z" fill="#B4508F"/>
<path d="M57.3267 43.7374C56.1791 39.0141 60.8084 32.092 70.2552 29.7968C79.7019 27.5015 85.081 32.5333 86.2286 37.2567C87.3763 41.98 82.3512 44.9034 72.9045 47.1987C63.4578 49.494 58.4743 48.4608 57.3267 43.7374Z" fill="#852F66"/>
<path d="M50.8907 131.373C29.0234 121.756 21.0413 141.066 19.7836 151.923C15.0955 178.225 57.0239 275.64 82.0702 271.985C107.116 268.33 99.3296 258.793 97.6277 239.828C95.9258 220.864 78.2249 143.394 50.8907 131.373Z" fill="#BD629C"/>
<path d="M143.123 88.0865C160.559 68.138 176.928 86.0486 182.933 97.4974C199.106 124.531 200.295 249.964 173.892 256.617C147.49 263.27 151.019 249.419 144.39 227.758C137.762 206.096 121.327 113.022 143.123 88.0865Z" fill="#BD629C"/>
<path d="M26.3601 152.324C24.4372 147.859 27.8411 140.26 36.7697 136.414C45.6982 132.568 51.8444 136.627 53.7674 141.091C55.6903 145.556 51.2262 149.28 42.2977 153.126C33.3691 156.971 28.283 156.788 26.3601 152.324Z" fill="#943C74"/>
<path d="M175.734 97.9932C175.807 93.133 169.759 87.4086 160.038 87.2633C150.318 87.1181 146.187 93.2166 146.114 98.0769C146.042 102.937 151.59 104.675 161.31 104.82C171.031 104.965 175.661 102.853 175.734 97.9932Z" fill="#943C74"/>
</svg>
