<svg width="198" height="257" viewBox="0 0 198 257" fill="none" xmlns="http://www.w3.org/2000/svg">
<path d="M76.3868 8.44536C55.2659 -13.3817 42.8524 16.2368 39.2858 33.7744C28.9115 75.8088 53.1301 247.734 80.3452 248.572C107.56 249.41 101.299 231.569 103.41 199.869C105.521 168.169 102.788 35.7292 76.3868 8.44536Z" fill="#B4508F"/>
<path d="M48.4031 24.0602C47.6066 19.2651 52.7334 12.703 62.3236 11.1101C71.9138 9.51713 76.9075 14.9316 77.704 19.7267C78.5004 24.5218 73.2736 27.067 63.6834 28.6599C54.0933 30.2528 49.1995 28.8553 48.4031 24.0602Z" fill="#852F66"/>
<path d="M35.5267 110.983C14.4275 99.781 5.04416 118.451 2.98988 129.186C-3.62355 155.07 31.0126 255.31 56.2601 253.511C81.5076 251.711 74.4447 241.626 74.1449 222.587C73.8451 203.549 61.9007 124.986 35.5267 110.983Z" fill="#BD629C"/>
<path d="M130.698 74.6108C149.557 56.0014 164.562 75.0694 169.707 86.9296C183.843 115.081 175.786 240.261 148.965 244.95C122.144 249.64 126.685 236.086 121.67 213.995C116.656 191.905 107.124 97.8725 130.698 74.6108Z" fill="#BD629C"/>
<path d="M9.519 130.069C7.93027 125.476 11.885 118.147 21.0726 114.97C30.2602 111.792 36.0907 116.293 37.6794 120.887C39.2681 125.481 34.5418 128.866 25.3541 132.043C16.1665 135.221 11.1077 134.663 9.519 130.069Z" fill="#943C74"/>
<path d="M162.49 86.8933C162.921 82.0516 157.311 75.8972 147.628 75.036C137.945 74.1749 133.376 79.9525 132.945 84.7942C132.515 89.6359 137.919 91.7774 147.603 92.6385C157.286 93.4996 162.06 91.735 162.49 86.8933Z" fill="#943C74"/>
</svg>
