<svg width="124" height="131" viewBox="0 0 124 131" fill="none" xmlns="http://www.w3.org/2000/svg">
<path d="M86.1246 8.88881C103.257 0.11352 110.876 14.7383 112.544 23.1476C117.914 43.4239 89.7899 121.947 69.2895 120.537C48.789 119.127 54.5239 111.227 54.7673 96.3138C55.0108 81.4003 64.7094 19.8579 86.1246 8.88881Z" fill="#BD629C"/>
<path d="M45.044 33.2974C29.4461 24.4323 19.7454 34.9415 16.8448 41.3043C8.52047 56.487 24.5603 121.053 45.0016 122.371C65.4429 123.688 60.962 116.85 62.9466 105.188C64.9312 93.5268 64.5412 44.3788 45.044 33.2974Z" fill="#BD629C"/>
<path d="M107.242 23.8398C108.532 20.2412 105.321 14.5005 97.8609 12.0114C90.4007 9.52238 85.6665 13.0483 84.3765 16.6469C83.0865 20.2455 86.9242 22.8971 94.3844 25.3862C101.845 27.8753 105.952 27.4384 107.242 23.8398Z" fill="#943C74"/>
<path d="M21.9734 42.4697C21.2372 39.5106 25.2625 35.4113 32.996 34.3495C40.7295 33.2877 44.8754 36.5962 45.6116 39.5553C46.3478 42.5144 42.165 44.1302 34.4315 45.1921C26.698 46.2539 22.7096 45.4287 21.9734 42.4697Z" fill="#943C74"/>
</svg>
