<svg width="1028" height="1005" viewBox="0 0 1028 1005" fill="none" xmlns="http://www.w3.org/2000/svg">
<path d="M35.8334 470.368C-13.6871 498.98 -1.30701 591.016 11.0731 633.458C85.3539 694.974 686.675 825.159 665.452 549.051C648.473 328.165 558.157 265.313 515.121 261.499C479.75 74.9469 406.058 89.3485 373.634 119.868C270.5 24.9282 195.007 106.993 182.626 179.954C170.246 252.915 172.015 295.833 154.329 300.125C136.643 304.417 104.808 313.001 101.271 364.503C97.734 416.005 97.7341 434.603 35.8334 470.368Z" fill="#304E7E"/>
<path d="M926.007 754.138C969.984 790.703 942.24 879.326 922.87 919.067C839.267 967.156 224.598 993.922 292.144 725.364C346.181 510.518 445.814 463.821 488.876 467.329C555.244 289.43 625.445 316.069 652.249 351.626C769.935 275.467 830.486 369.102 830.367 443.106C830.247 517.11 821.256 559.113 837.963 566.33C854.671 573.547 884.598 587.383 879.387 638.743C874.176 690.102 871.035 708.433 926.007 754.138Z" fill="#304E7E"/>
<path d="M726.995 236C727.68 247.071 730.167 264.361 726.995 276.862C720.794 301.304 735.205 300.371 729.794 338.061" stroke="#304E7E" stroke-width="4" stroke-linecap="round"/>
<path d="M747.422 249.808C748.106 260.878 748.778 265.214 744.348 279.474C738.378 298.692 752.558 315.298 735.206 340.674" stroke="#304E7E" stroke-width="4" stroke-linecap="round"/>
<path d="M737.348 243.09C738.032 254.16 739.497 268.838 736.325 281.339C730.124 305.782 748.08 309.14 732.78 340.673" stroke="#304E7E" stroke-width="4" stroke-linecap="round"/>
<path d="M699.488 252.419C698.804 263.49 698.941 286.157 701.061 298.878C703.673 314.551 707.032 343.285 732.967 342.166" stroke="#304E7E" stroke-width="4" stroke-linecap="round"/>
<path d="M706.28 271.451C705.596 282.522 704.793 333.397 732.594 341.047" stroke="#304E7E" stroke-width="4" stroke-linecap="round"/>
<path d="M760.208 291.976C760.892 303.046 765.246 334.89 734.086 341.98" stroke="#304E7E" stroke-width="4" stroke-linecap="round"/>
<path d="M768.791 277.795C768.791 288.99 769.724 311.753 760.581 314.365" stroke="#304E7E" stroke-width="4" stroke-linecap="round"/>
<path d="M755.543 274.81C755.543 286.005 751.812 301.118 744.162 303.357" stroke="#304E7E" stroke-width="4" stroke-linecap="round"/>
<path d="M718.227 283.766C718.227 294.961 721.958 310.074 729.608 312.313" stroke="#304E7E" stroke-width="4" stroke-linecap="round"/>
<path d="M688 258.39C688 265.999 691.671 276.272 699.195 277.794" stroke="#304E7E" stroke-width="4" stroke-linecap="round"/>
<path d="M752.185 305.782C752.185 316.977 750.319 335.636 737.445 339.367" stroke="#304E7E" stroke-width="4" stroke-linecap="round"/>
<path d="M753.678 247.568C753.678 258.763 756.663 269.399 747.52 272.011" stroke="#304E7E" stroke-width="4" stroke-linecap="round"/>
<path d="M330.096 2C329.49 11.8197 327.283 27.156 330.096 38.2445C335.597 59.9251 322.814 59.0976 327.614 92.5286" stroke="#304E7E" stroke-width="3.5" stroke-linecap="round"/>
<path d="M311.978 14.2471C311.371 24.0667 310.775 27.9128 314.705 40.5616C320 57.6081 307.422 72.3376 322.814 94.8457" stroke="#304E7E" stroke-width="3.5" stroke-linecap="round"/>
<path d="M320.914 8.28906C320.307 18.1087 319.008 31.128 321.821 42.2166C327.321 63.8971 311.394 66.8761 324.965 94.8456" stroke="#304E7E" stroke-width="3.5" stroke-linecap="round"/>
<path d="M354.495 16.5635C355.102 26.3832 354.981 46.4888 353.1 57.773C350.783 71.675 347.804 97.1621 324.8 96.1691" stroke="#304E7E" stroke-width="3.5" stroke-linecap="round"/>
<path d="M348.471 33.4453C349.078 43.265 349.79 88.3914 325.131 95.1769" stroke="#304E7E" stroke-width="3.5" stroke-linecap="round"/>
<path d="M300.637 51.6504C300.03 61.4701 296.168 89.7154 323.807 96.0044" stroke="#304E7E" stroke-width="3.5" stroke-linecap="round"/>
<path d="M293.024 39.0723C293.024 49.0023 292.196 69.1933 300.306 71.5103" stroke="#304E7E" stroke-width="3.5" stroke-linecap="round"/>
<path d="M304.774 36.4238C304.774 46.3538 308.084 59.7593 314.87 61.7454" stroke="#304E7E" stroke-width="3.5" stroke-linecap="round"/>
<path d="M337.874 44.3682C337.874 54.2982 334.564 67.7037 327.779 69.6897" stroke="#304E7E" stroke-width="3.5" stroke-linecap="round"/>
<path d="M364.685 21.8604C364.685 28.6102 361.43 37.7224 354.755 39.0724" stroke="#304E7E" stroke-width="3.5" stroke-linecap="round"/>
<path d="M307.753 63.8975C307.753 73.8275 309.408 90.3775 320.828 93.6875" stroke="#304E7E" stroke-width="3.5" stroke-linecap="round"/>
<path d="M306.429 12.2607C306.429 22.1908 303.781 31.6243 311.891 33.9413" stroke="#304E7E" stroke-width="3.5" stroke-linecap="round"/>
<path d="M649.527 230.451C650.266 236.51 644.416 246.522 641.399 250.77C640.845 251.509 639.774 251.657 639.921 246.337C640.106 239.687 636.781 238.024 634.749 232.113C632.717 226.202 634.195 213.456 636.042 209.023C637.89 204.59 637.705 194.245 636.596 192.767C635.488 191.29 633.087 189.997 633.087 197.385C633.087 204.774 632.533 215.858 629.392 210.87C626.252 205.883 623.851 199.417 624.774 193.691C625.698 187.965 620.71 168.938 617.57 170.046C614.43 171.155 614.245 175.403 617.201 183.162C620.156 190.92 618.309 191.105 619.233 195.908C620.156 200.71 623.666 209.023 627.73 216.042C631.794 223.062 631.24 231.559 632.163 233.037C633.087 234.515 641.03 267.395 634.749 258.529C628.469 249.662 621.819 248.554 622.558 235.623L622.586 235.125C623.315 222.39 623.974 210.87 619.233 210.87C614.43 210.87 619.971 232.298 619.233 236.362C618.494 240.426 615.908 239.872 612.952 230.451C609.996 221.03 610.735 211.055 609.996 204.22C609.258 197.385 603.716 191.474 601.499 193.691C599.283 195.908 608.149 209.208 606.671 216.042C605.194 222.877 603.162 218.813 597.805 215.304C592.448 211.794 589.307 203.112 587.091 206.437C584.874 209.762 589.677 216.412 597.805 220.845C605.933 225.279 606.671 233.406 608.334 234.884C609.996 236.362 612.583 241.904 617.57 246.337C622.558 250.77 625.513 257.42 629.577 260.93C633.641 264.44 635.673 276.077 633.826 288.454C631.978 300.83 631.24 314.5 630.87 322.443C630.501 330.386 626.437 342.023 634.565 341.1C637.89 341.1 651.559 315.608 657.47 312.098C663.381 308.588 666.337 300.83 666.706 296.766C667.076 292.702 669.662 289.008 671.324 287.161C672.987 285.313 678.528 275.708 674.649 276.262C670.77 276.816 671.324 281.065 668.738 284.944C666.152 288.823 665.413 290.67 664.12 294.18C662.827 297.69 663.935 301.938 658.763 306.926C653.591 311.913 660.98 285.683 660.98 280.141C660.98 274.599 667.445 267.949 669.662 264.809C671.878 261.669 677.605 251.694 672.802 252.248C667.999 252.802 669.477 261.669 663.197 266.841C656.916 272.013 665.228 260.191 658.763 255.758C652.298 251.324 654.884 265.363 656.177 274.599C657.47 283.836 654.145 288.823 653.591 302.493C653.037 316.162 639.552 332.418 634.565 334.45C629.577 336.482 638.074 325.952 637.335 311.175C636.596 296.397 653.222 274.969 650.081 268.688C646.941 262.408 642.692 284.574 639.552 287.161C636.412 289.747 641.399 274.23 640.291 268.688C639.183 263.147 643.985 252.987 644.909 250.77C645.833 248.554 653.406 241.349 652.852 229.897C652.298 218.444 657.84 212.533 659.687 210.87C661.534 209.208 663.566 202.927 664.859 197.94C666.152 192.952 662.273 190.92 661.165 195.723C660.056 200.526 654.33 215.304 651.744 214.565C649.158 213.826 650.451 204.035 648.973 202.558C647.495 201.08 650.266 193.506 649.527 190.92C648.788 188.334 646.941 184.455 644.909 192.398C642.877 200.341 646.202 207.915 648.049 212.533C649.897 217.151 648.603 222.877 649.527 230.451Z" fill="#304E7E"/>
<path d="M582.097 296.598C583.538 299.945 591.71 301.422 595.616 301.742C596.319 301.78 597.246 301.238 595.328 298.756C592.93 295.653 595.091 292.945 594.758 288.928C594.424 284.911 588.908 279.609 585.898 278.529C582.888 277.449 579.545 272.352 579.953 271.004C580.361 269.656 581.891 267.655 584.387 271.22C586.883 274.785 591.081 279.814 591.967 275.608C592.853 271.401 592.635 266.905 589.945 264.672C587.254 262.439 584.91 250.4 587.855 249.134C590.801 247.869 592.387 249.813 592.588 255.25C592.79 260.688 594.364 259.718 595.231 262.564C596.097 265.411 596.032 271.434 595.076 277.15C594.12 282.867 597.444 286.649 597.187 287.891C596.93 289.133 601.534 309.551 603.681 301.672C605.828 293.794 610.898 289.447 605.925 283.632C600.952 277.817 596.353 272.537 600.285 269.783C604.218 267.03 606.919 280.545 608.897 282.082C610.875 283.619 612.805 281.869 612.042 275.63C611.28 269.39 607.305 265.001 605.601 261.28C603.897 257.559 606.437 251.53 609.001 251.329C611.565 251.127 608.798 262.627 612.317 265.078C614.392 267.014 618.297 271.733 617.321 275.121C616.459 276.787 616.214 280.943 613.628 285.942C611.042 290.94 610.869 295.843 608.727 299.866C606.586 303.889 608.853 310.669 614.547 315.581C620.24 320.493 625.463 326.664 628.449 330.285C631.435 333.905 638.694 337.19 631.727 341.404C629.005 343.31 609.201 338.848 603.176 340.544C597.15 342.239 592.11 340.19 590.434 338.441C588.759 336.693 585.393 336.393 583.408 336.455C581.423 336.516 573.641 335.059 577.004 333.103C580.367 331.146 581.349 333.514 584.777 333.903C588.205 334.291 589.434 334.759 591.678 335.711C593.922 336.663 594.45 339.348 600.37 338.789C606.289 338.231 591.378 329.811 589.506 327.138C587.634 324.464 580.094 324.962 577.218 324.718C574.343 324.473 566.284 322.944 570.404 320.458C574.523 317.972 576.309 323.097 583.198 321.992C590.088 320.886 579.288 319.948 583.084 314.103C586.88 308.257 589.505 316.513 591.566 321.71C593.628 326.908 598.035 327.408 603.107 333.685C608.178 339.963 624.711 340.075 629.481 338.196C634.251 336.317 623.736 336.108 619.349 328.555C614.962 321.001 594.111 320.194 594.56 315.364C595.01 310.533 605.977 318.792 609.422 318.24C612.866 317.687 603.541 313.06 602.576 309.751C601.612 306.442 594.247 304.294 592.742 303.754C591.237 303.214 582.602 304.08 579.187 298.237C575.772 292.393 569.238 292.719 567.164 292.975C565.089 293.232 561.304 291.367 558.56 289.702C555.817 288.037 558.307 284.833 560.836 286.515C563.366 288.196 573.047 292.043 574.915 290.204C576.783 288.365 572.417 284.383 573.127 282.823C573.838 281.263 569.011 279.197 568.742 277.526C568.473 275.854 568.675 272.924 573.022 275.591C577.369 278.259 577.206 283.819 577.253 287.106C577.301 290.393 580.294 292.414 582.097 296.598Z" fill="#304E7E"/>
<path d="M527.859 188.339C525.103 190.723 526.159 198.959 527.031 202.779C527.206 203.462 528.004 204.182 529.792 201.605C532.027 198.383 535.261 199.627 538.99 198.098C542.719 196.569 546.111 189.711 546.233 186.515C546.356 183.319 550.207 178.595 551.616 178.577C553.024 178.56 555.393 179.415 552.747 182.87C550.1 186.325 546.571 191.844 550.849 191.42C555.127 190.997 559.348 189.433 560.666 186.195C561.984 182.956 572.755 177.091 574.85 179.517C576.945 181.944 575.57 184.043 570.446 185.874C565.322 187.706 566.722 188.915 564.269 190.599C561.816 192.283 556.054 194.037 550.315 194.849C544.577 195.662 541.973 199.972 540.711 200.101C539.449 200.231 521.37 210.778 529.529 210.449C537.689 210.12 543.362 213.644 547.407 207.148C551.452 200.653 555.099 194.676 558.91 197.595C562.721 200.514 550.65 207.165 549.781 209.515C548.912 211.864 551.162 213.177 556.881 210.568C562.6 207.959 565.587 202.846 568.621 200.099C571.655 197.353 578.169 197.957 579.134 200.34C580.099 202.724 568.3 203.554 567.025 207.648C565.805 210.21 562.483 215.356 558.958 215.448C557.109 215.128 553.073 216.148 547.527 215.189C541.982 214.231 537.255 215.544 532.774 214.715C528.292 213.886 522.512 218.093 519.545 225.003C516.578 231.912 512.269 238.753 509.717 242.691C507.166 246.63 506.223 254.541 500.104 249.17C497.466 247.149 495.749 226.922 492.315 221.688C488.882 216.454 489.315 211.03 490.477 208.905C491.64 206.781 490.911 203.482 490.253 201.607C489.596 199.733 488.638 191.874 491.518 194.491C494.398 197.107 492.436 198.757 493.099 202.143C493.762 205.528 493.687 206.841 493.456 209.268C493.225 211.695 490.824 213.008 493.142 218.484C495.459 223.959 498.991 207.203 500.975 204.612C502.96 202.021 500.212 194.982 499.577 192.167C498.943 189.351 497.972 181.207 501.584 184.385C505.197 187.563 500.849 190.811 503.98 197.046C507.111 203.282 504.749 192.702 511.467 194.558C518.185 196.415 511.105 201.407 506.771 204.94C502.437 208.473 503.289 212.826 498.833 219.554C494.378 226.283 499.256 242.079 502.486 246.06C505.715 250.042 502.744 239.954 508.623 233.493C514.502 227.033 508.984 206.909 513.725 205.881C518.466 204.853 513.899 217.8 515.464 220.918C517.03 224.035 518.629 213.749 521.494 211.831C524.358 209.914 524.185 202.244 524.246 200.646C524.307 199.049 520.878 191.077 525.419 186.059C529.961 181.04 527.681 174.908 526.81 173.008C525.94 171.108 526.577 166.937 527.337 163.819C528.097 160.701 531.903 162.108 531.062 165.028C530.222 167.947 529.473 178.337 531.79 179.563C534.107 180.79 536.587 175.426 538.289 175.633C539.991 175.84 540.504 170.615 542.017 169.855C543.529 169.095 546.384 168.404 545.152 173.353C543.92 178.302 538.569 179.822 535.449 180.859C532.329 181.895 531.305 185.359 527.859 188.339Z" fill="#304E7E"/>
</svg>
