<svg width="680" height="816" viewBox="0 0 680 816" fill="none" xmlns="http://www.w3.org/2000/svg">
<path d="M35.8334 567.94C-13.6871 596.552 -1.30701 688.588 11.0731 731.03C85.3539 792.546 686.675 922.731 665.452 646.624C648.473 425.737 558.157 362.886 515.121 359.071C479.75 172.519 406.058 186.921 373.634 217.441C270.5 122.5 195.007 204.565 182.626 277.526C170.246 350.487 172.015 393.406 154.329 397.698C136.643 401.989 104.808 410.573 101.271 462.075C97.734 513.577 97.7341 532.175 35.8334 567.94Z" fill="#304E7E"/>
<path d="M311.994 96C312.678 107.071 315.165 124.361 311.994 136.862C305.793 161.304 320.203 160.371 314.793 198.061" stroke="#304E7E" stroke-width="4" stroke-linecap="round"/>
<path d="M332.421 109.807C333.105 120.878 333.776 125.214 329.346 139.474C323.376 158.692 337.556 175.298 320.204 200.673" stroke="#304E7E" stroke-width="4" stroke-linecap="round"/>
<path d="M322.346 103.09C323.03 114.161 324.495 128.839 321.323 141.34C315.122 165.782 333.078 169.141 317.778 200.673" stroke="#304E7E" stroke-width="4" stroke-linecap="round"/>
<path d="M284.487 112.419C283.802 123.49 283.939 146.157 286.059 158.878C288.671 174.551 292.03 203.285 317.965 202.166" stroke="#304E7E" stroke-width="4" stroke-linecap="round"/>
<path d="M182.488 179C181.804 190.071 181.941 212.738 184.061 225.459C186.673 241.132 190.032 269.866 215.967 268.747" stroke="#304E7E" stroke-width="4" stroke-linecap="round"/>
<path d="M291.278 131.451C290.594 142.521 289.791 193.396 317.592 201.046" stroke="#304E7E" stroke-width="4" stroke-linecap="round"/>
<path d="M189.28 198.031C188.595 209.102 187.793 259.977 215.593 267.627" stroke="#304E7E" stroke-width="4" stroke-linecap="round"/>
<path d="M345.206 151.975C345.89 163.046 350.244 194.889 319.085 201.979" stroke="#304E7E" stroke-width="4" stroke-linecap="round"/>
<path d="M353.789 137.794C353.789 148.989 354.722 171.753 345.579 174.365" stroke="#304E7E" stroke-width="4" stroke-linecap="round"/>
<path d="M340.542 134.809C340.542 146.004 336.81 161.117 329.16 163.356" stroke="#304E7E" stroke-width="4" stroke-linecap="round"/>
<path d="M303.225 143.766C303.225 154.961 306.957 170.074 314.607 172.313" stroke="#304E7E" stroke-width="4" stroke-linecap="round"/>
<path d="M272.998 118.39C272.998 126 276.669 136.273 284.193 137.795" stroke="#304E7E" stroke-width="4" stroke-linecap="round"/>
<path d="M171 184.971C171 192.58 174.671 202.853 182.195 204.375" stroke="#304E7E" stroke-width="4" stroke-linecap="round"/>
<path d="M337.183 165.782C337.183 176.977 335.317 195.636 322.443 199.367" stroke="#304E7E" stroke-width="4" stroke-linecap="round"/>
<path d="M338.676 107.568C338.676 118.763 341.661 129.399 332.519 132.011" stroke="#304E7E" stroke-width="4" stroke-linecap="round"/>
<path d="M621.643 299.014C618.517 304.256 607.761 308.588 602.774 310.099C601.883 310.344 600.946 309.805 604.321 305.69C608.539 300.546 606.929 297.195 608.943 291.278C610.957 285.361 619.931 276.19 624.107 273.816C628.282 271.443 634.471 263.152 634.5 261.305C634.529 259.458 633.423 256.966 628.897 262.807C624.372 268.648 617.146 277.07 617.718 271.204C618.29 265.338 620.352 258.756 624.589 254.795C628.826 250.834 636.536 232.739 633.375 231.692C630.213 230.645 627.465 233.89 625.05 241.833C622.635 249.777 621.062 248.791 618.851 253.154C616.639 257.516 614.323 266.237 613.236 274.275C612.15 282.312 606.508 288.69 606.333 290.424C606.158 292.158 592.3 323.015 592.765 312.16C593.231 301.304 588.653 296.355 597.156 286.586L597.484 286.209C605.858 276.589 613.435 267.885 609.687 264.982C605.89 262.04 597.148 282.373 594.075 285.133C591.002 287.893 589.297 285.872 592.73 276.614C596.163 267.357 602.857 259.924 606.458 254.068C610.06 248.213 609.299 240.146 606.19 240.541C603.08 240.935 601.943 256.88 596.589 261.378C591.235 265.876 592.118 261.418 590.033 255.363C587.947 249.308 590.782 240.521 586.993 241.792C583.205 243.063 582.929 251.262 586.639 259.744C590.349 268.226 585.955 275.104 586.364 277.29C586.773 279.477 585.424 285.442 586.652 292.001C587.879 298.56 586.143 305.627 587.206 310.89C588.269 316.154 582.748 326.598 573.708 335.25C564.668 343.903 555.712 354.256 550.555 360.309C545.399 366.362 535.059 373.073 542.05 377.32C544.678 379.357 571.096 367.577 577.919 368.422C584.741 369.268 591.829 364.945 594.61 361.959C597.391 358.972 601.698 357.636 604.143 357.194C606.589 356.752 616.852 352.552 613.447 350.614C610.041 348.677 607.877 352.375 603.456 353.858C599.036 355.34 597.321 356.348 594.149 358.331C590.978 360.313 589.252 364.351 582.108 365.126C574.965 365.901 596.871 349.69 600.265 345.309C603.659 340.929 612.842 339.631 616.518 338.506C620.193 337.381 630.829 333.003 626.693 330.5C622.557 327.996 618.295 335.911 610.163 336.153C602.03 336.395 615.842 332.14 613.446 324.676C611.05 317.212 604.496 329.894 599.862 337.987C595.228 346.08 589.545 347.987 580.735 358.453C571.925 368.92 551.31 373.512 546.122 372.063C540.935 370.615 554.101 367.496 562.567 355.361C571.034 343.226 597.299 336.469 598.663 329.581C600.027 322.693 583.093 337.614 579.027 337.735C574.96 337.856 588.406 328.645 590.924 323.585C593.442 318.525 603.461 313.435 605.548 312.249C607.636 311.062 618.035 310.005 624.611 300.612C631.187 291.219 639.188 289.94 641.667 289.757C644.145 289.575 649.598 285.854 653.675 282.703C657.751 279.552 655.929 275.57 652.112 278.688C648.294 281.806 634.717 289.981 633.125 287.813C631.533 285.645 638.551 278.698 638.288 276.625C638.025 274.551 644.854 270.261 645.853 267.764C646.853 265.267 647.769 261.07 641.298 266.104C634.827 271.139 632.817 279.162 631.449 283.944C630.081 288.726 625.552 292.461 621.643 299.014Z" fill="#304E7E"/>
<path d="M527.828 310.007C526.918 313.536 532.473 319.708 535.365 322.353C535.897 322.815 536.962 322.953 536.966 319.816C536.97 315.895 540.337 315.078 542.534 311.698C544.73 308.319 543.617 300.749 541.899 298.052C540.181 295.355 540.659 289.278 541.808 288.462C542.956 287.646 545.391 287.001 545.181 291.348C544.971 295.695 545.209 302.242 548.486 299.459C551.762 296.677 554.344 292.989 553.584 289.576C552.825 286.162 558.345 275.21 561.449 276.013C564.552 276.817 564.616 279.325 561.445 283.747C558.274 288.168 560.112 288.366 559.054 291.147C557.995 293.928 554.255 298.649 549.998 302.582C545.742 306.516 546.053 311.541 545.089 312.366C544.125 313.191 535.261 332.151 541.783 327.238C548.305 322.325 554.976 321.994 554.606 314.351C554.235 306.708 553.834 299.718 558.629 299.949C563.423 300.181 557.282 312.52 557.904 314.946C558.526 317.372 561.124 317.171 564.342 311.771C567.561 306.372 567.106 300.468 568.038 296.483C568.97 292.498 574.671 289.287 576.821 290.698C578.971 292.109 569.741 299.506 571.022 303.598C571.476 306.399 571.673 312.522 568.827 314.602C567.125 315.392 564.385 318.527 559.28 320.894C554.175 323.262 551.035 327.032 546.878 328.9C542.722 330.769 540.362 337.517 541.855 344.887C543.347 352.257 543.696 360.335 543.839 365.025C543.982 369.716 547.709 376.758 539.621 375.823C536.301 375.663 523.379 360.007 517.577 357.657C511.776 355.307 509.046 350.6 508.792 348.192C508.539 345.783 506.062 343.485 504.455 342.318C502.848 341.151 497.588 335.233 501.445 335.746C505.302 336.259 504.628 338.732 507.1 341.139C509.571 343.546 510.256 344.668 511.448 346.795C512.639 348.922 511.411 351.368 516.433 354.552C521.455 357.735 514.824 341.948 514.982 338.687C515.139 335.427 508.874 331.203 506.75 329.249C504.626 327.295 499.193 321.15 503.972 321.708C508.751 322.266 507.023 327.411 513.147 330.756C519.27 334.102 511.307 326.746 517.888 324.45C524.468 322.154 521.487 330.288 519.934 335.659C518.381 341.03 521.558 344.125 521.723 352.193C521.888 360.261 534.888 370.475 539.81 371.911C544.731 373.347 536.547 366.743 537.705 358.085C538.863 349.427 522.874 336.019 526.188 332.476C529.501 328.932 533.113 342.178 536.174 343.85C539.236 345.523 534.698 336.154 535.962 332.948C537.226 329.741 532.72 323.533 531.861 322.184C531.002 320.835 523.645 316.232 524.524 309.521C525.403 302.81 520.038 299.065 518.241 297.998C516.444 296.931 514.594 293.138 513.445 290.142C512.296 287.145 516.227 286.137 517.197 289.016C518.167 291.895 523.463 300.865 526.066 300.555C528.669 300.245 527.656 294.423 529.174 293.625C530.691 292.827 528.14 288.237 528.951 286.752C529.762 285.266 531.717 283.073 533.52 287.844C535.322 292.615 531.788 296.91 529.812 299.538C527.837 302.165 528.965 305.596 527.828 310.007Z" fill="#304E7E"/>
<path d="M137.231 324.719C138.48 328.142 146.554 330.082 150.435 330.624C151.135 330.703 152.092 330.214 150.318 327.627C148.101 324.392 150.412 321.812 150.309 317.782C150.205 313.753 145 308.145 142.056 306.896C139.113 305.646 136.065 300.367 136.549 299.044C137.034 297.721 138.675 295.811 140.964 299.512C143.252 303.214 147.157 308.474 148.282 304.325C149.406 300.176 149.444 295.675 146.885 293.292C144.326 290.909 142.672 278.756 145.685 277.66C148.698 276.564 150.171 278.596 150.062 284.036C149.953 289.476 151.58 288.597 152.283 291.489C152.986 294.38 152.577 300.389 151.297 306.042C150.017 311.695 153.12 315.66 152.793 316.886C152.466 318.111 155.899 338.758 158.492 331.015C161.084 323.271 166.394 319.22 161.76 313.131C157.126 307.042 152.835 301.509 156.918 298.984C161.001 296.459 162.928 310.106 164.815 311.753C166.702 313.401 168.729 311.763 168.323 305.49C167.917 299.218 164.199 294.609 162.709 290.797C161.22 286.985 164.1 281.111 166.671 281.056C169.242 281.001 165.825 292.324 169.198 294.971C171.159 297.022 174.789 301.956 173.622 305.283C172.667 306.898 172.185 311.033 169.319 315.876C166.452 320.719 166 325.604 163.632 329.498C161.265 333.393 163.143 340.291 168.547 345.519C173.952 350.748 178.814 357.207 181.589 360.992C184.364 364.776 191.424 368.469 184.228 372.28C181.402 374.028 161.885 368.444 155.772 369.794C149.66 371.143 144.744 368.811 143.171 366.969C141.598 365.128 138.255 364.637 136.27 364.585C134.284 364.534 126.598 362.636 130.067 360.874C133.536 359.112 134.381 361.532 137.781 362.115C141.182 362.699 142.382 363.236 144.568 364.314C146.755 365.392 147.129 368.103 153.071 367.883C159.013 367.662 144.606 358.407 142.889 355.631C141.172 352.855 133.616 352.922 130.759 352.515C127.902 352.107 119.944 350.121 124.198 347.873C128.452 345.626 129.943 350.845 136.884 350.134C143.826 349.423 133.097 347.871 137.22 342.251C141.342 336.631 143.493 345.023 145.255 350.33C147.017 355.636 151.389 356.387 156.094 362.943C160.8 369.499 177.299 370.553 182.168 368.948C187.037 367.344 176.552 366.537 172.602 358.746C168.652 350.955 147.882 348.961 148.606 344.164C149.329 339.367 159.808 348.238 163.279 347.882C166.749 347.527 157.703 342.376 156.928 339.017C156.154 335.659 148.923 333.094 147.452 332.469C145.98 331.845 137.31 332.217 134.233 326.189C131.156 320.161 124.614 320.113 122.529 320.251C120.443 320.39 116.77 318.312 114.126 316.493C111.482 314.674 114.15 311.617 116.58 313.44C119.01 315.264 128.456 319.656 130.425 317.926C132.395 316.196 128.263 311.972 129.061 310.455C129.86 308.938 125.158 306.6 124.985 304.917C124.812 303.233 125.181 300.318 129.369 303.229C133.557 306.14 133.076 311.682 132.937 314.966C132.797 318.25 135.67 320.439 137.231 324.719Z" fill="#304E7E"/>
</svg>
