<svg width="84" height="58" viewBox="0 0 84 58" fill="none" xmlns="http://www.w3.org/2000/svg">
<path d="M27.4835 11.2509C31.8272 9.92961 34.5238 14.7644 35.3292 17.347C32.7684 20.0439 26.3221 24.7494 21.0235 21.9952C14.4003 18.5526 22.054 12.9025 27.4835 11.2509Z" fill="#3A5875"/>
<path d="M49.9334 4.12522C56.4489 2.14327 58.8162 9.92558 59.1854 14.0645C55.6066 15.4299 47.6616 17.7954 44.5119 16.3333C40.5747 14.5056 41.7892 6.60265 49.9334 4.12522Z" fill="#3A5875"/>
<path d="M46.2446 48.5504C53.0346 54.6473 57.1636 43.8843 58.3794 37.7408C58.6233 37.5677 58.3606 37.094 55.358 36.5837C51.6048 35.9458 37.7571 40.9293 46.2446 48.5504Z" fill="#3A5875"/>
<path d="M24.5147 39.3223C16.8022 39.865 18.3276 34.3233 20.0543 31.4846C25.3639 32.5586 35.8734 35.0484 35.4351 36.4156C34.8872 38.1246 34.1553 38.6438 24.5147 39.3223Z" fill="#3A5875"/>
<path d="M5.27893 19.9631C10.4992 15.9074 16.2646 22.7312 16.9391 27.0936C17.4296 30.2663 15.5693 31.366 11.0556 33.6882C4.19164 37.2195 -1.24636 25.0326 5.27893 19.9631Z" fill="#3A5875"/>
<path d="M80.2775 27.0461C81.6999 36.2452 66.0026 39.7713 53.0726 40.1859C36.5062 40.717 13.9543 34.0523 12.9732 27.707C11.5509 18.5079 37.0055 15.0578 56.0415 12.1145C67.5423 10.3363 78.8552 17.847 80.2775 27.0461Z" fill="#3A5875"/>
<circle cx="71.7686" cy="24.2205" r="1.60518" transform="rotate(-8.7893 71.7686 24.2205)" fill="#162A3D"/>
<path d="M75.4135 26.6068C76.1322 25.8684 77.7719 25.0211 78.5814 27.539" stroke="#162A3D" stroke-linecap="round"/>
</svg>
