<svg width="84" height="58" viewBox="0 0 84 58" fill="none" xmlns="http://www.w3.org/2000/svg">
<path d="M55.618 11.2509C51.2744 9.92961 48.5778 14.7644 47.7724 17.347C50.3332 20.0439 56.7795 24.7494 62.078 21.9952C68.7013 18.5526 61.0476 12.9025 55.618 11.2509Z" fill="#3A5875"/>
<path d="M33.1681 4.12522C26.6527 2.14327 24.2854 9.92558 23.9161 14.0645C27.4949 15.4299 35.4399 17.7954 38.5897 16.3333C42.5268 14.5056 41.3124 6.60265 33.1681 4.12522Z" fill="#3A5875"/>
<path d="M36.8569 48.5504C30.0669 54.6473 25.9379 43.8843 24.7221 37.7408C24.4782 37.5677 24.7409 37.094 27.7435 36.5837C31.4967 35.9458 45.3444 40.9293 36.8569 48.5504Z" fill="#3A5875"/>
<path d="M58.5869 39.3223C66.2994 39.865 64.774 34.3233 63.0472 31.4846C57.7377 32.5586 47.2282 35.0484 47.6665 36.4156C48.2144 38.1246 48.9462 38.6438 58.5869 39.3223Z" fill="#3A5875"/>
<path d="M77.8226 19.9631C72.6024 15.9074 66.837 22.7312 66.1625 27.0936C65.6719 30.2663 67.5322 31.366 72.0459 33.6882C78.9099 37.2195 84.3479 25.0326 77.8226 19.9631Z" fill="#3A5875"/>
<path d="M2.82401 27.0461C1.40168 36.2452 17.099 39.7713 30.0289 40.1859C46.5954 40.717 69.1472 34.0523 70.1283 27.707C71.5507 18.5079 46.0961 15.0578 27.0601 12.1145C15.5592 10.3363 4.24635 17.847 2.82401 27.0461Z" fill="#3A5875"/>
<circle r="1.60518" transform="matrix(-0.988257 -0.152801 -0.152801 0.988257 11.3329 24.2205)" fill="#162A3D"/>
<path d="M7.68805 26.6068C6.96939 25.8684 5.3297 25.0211 4.52019 27.539" stroke="#162A3D" stroke-linecap="round"/>
</svg>
